%TF.GenerationSoftware,KiCad,Pcbnew,7.0.8*%
%TF.CreationDate,2023-10-19T00:44:21-05:00*%
%TF.ProjectId,PowerDistrubutionBoard,506f7765-7244-4697-9374-727562757469,rev?*%
%TF.SameCoordinates,Original*%
%TF.FileFunction,Copper,L2,Bot*%
%TF.FilePolarity,Positive*%
%FSLAX46Y46*%
G04 Gerber Fmt 4.6, Leading zero omitted, Abs format (unit mm)*
G04 Created by KiCad (PCBNEW 7.0.8) date 2023-10-19 00:44:21*
%MOMM*%
%LPD*%
G01*
G04 APERTURE LIST*
%TA.AperFunction,ComponentPad*%
%ADD10C,3.600000*%
%TD*%
%TA.AperFunction,ComponentPad*%
%ADD11R,1.700000X1.700000*%
%TD*%
%TA.AperFunction,ComponentPad*%
%ADD12O,1.700000X1.700000*%
%TD*%
%TA.AperFunction,WasherPad*%
%ADD13C,3.600000*%
%TD*%
%TA.AperFunction,ConnectorPad*%
%ADD14C,6.000000*%
%TD*%
%TA.AperFunction,Conductor*%
%ADD15C,0.250000*%
%TD*%
%TA.AperFunction,Conductor*%
%ADD16C,2.000000*%
%TD*%
G04 APERTURE END LIST*
D10*
%TO.P,T4,1,+*%
%TO.N,Net-(J1-Pin_1)*%
X159350000Y-55550000D03*
%TO.P,T4,2,-*%
%TO.N,Net-(J1-Pin_2)*%
X163850000Y-55550000D03*
%TD*%
D11*
%TO.P,J6,1,Pin_1*%
%TO.N,Net-(J1-Pin_3)*%
X122715000Y-59500000D03*
D12*
%TO.P,J6,2,Pin_2*%
%TO.N,Net-(J1-Pin_4)*%
X120175000Y-59500000D03*
%TO.P,J6,3,Pin_3*%
%TO.N,Net-(J6-Pin_3)*%
X117635000Y-59500000D03*
%TD*%
D10*
%TO.P,T3,2,-*%
%TO.N,Net-(T3--)*%
X199500000Y-55600000D03*
%TO.P,T3,1,+*%
%TO.N,Net-(J1-Pin_1)*%
X195000000Y-55600000D03*
%TD*%
D11*
%TO.P,J1,1,Pin_1*%
%TO.N,Net-(J1-Pin_1)*%
X152175000Y-51875000D03*
D12*
%TO.P,J1,2,Pin_2*%
%TO.N,Net-(J1-Pin_2)*%
X149635000Y-51875000D03*
%TO.P,J1,3,Pin_3*%
%TO.N,Net-(J1-Pin_3)*%
X147095000Y-51875000D03*
%TO.P,J1,4,Pin_4*%
%TO.N,Net-(J1-Pin_4)*%
X144555000Y-51875000D03*
%TD*%
D10*
%TO.P,T2,1,+*%
%TO.N,Net-(J1-Pin_1)*%
X179525000Y-62625000D03*
%TO.P,T2,2,-*%
%TO.N,Net-(J1-Pin_2)*%
X184025000Y-62625000D03*
%TD*%
D13*
%TO.P,S1,*%
%TO.N,Net-(T3--)*%
X199525000Y-62825000D03*
D14*
%TO.P,S1,2,2*%
X199525000Y-62825000D03*
%TD*%
D11*
%TO.P,J9,1,Pin_1*%
%TO.N,Net-(J1-Pin_3)*%
X122715000Y-65100000D03*
D12*
%TO.P,J9,2,Pin_2*%
%TO.N,Net-(J1-Pin_4)*%
X120175000Y-65100000D03*
%TO.P,J9,3,Pin_3*%
%TO.N,Net-(J7-Pin_7)*%
X117635000Y-65100000D03*
%TD*%
%TO.P,J7,8,Pin_8*%
%TO.N,Net-(J1-Pin_3)*%
X130650000Y-64815000D03*
%TO.P,J7,7,Pin_7*%
%TO.N,Net-(J7-Pin_7)*%
X128110000Y-64815000D03*
%TO.P,J7,6,Pin_6*%
%TO.N,Net-(J1-Pin_3)*%
X130650000Y-62275000D03*
%TO.P,J7,5,Pin_5*%
%TO.N,Net-(J7-Pin_5)*%
X128110000Y-62275000D03*
%TO.P,J7,4,Pin_4*%
%TO.N,Net-(J1-Pin_3)*%
X130650000Y-59735000D03*
%TO.P,J7,3,Pin_3*%
%TO.N,Net-(J6-Pin_3)*%
X128110000Y-59735000D03*
%TO.P,J7,2,Pin_2*%
%TO.N,Net-(J1-Pin_3)*%
X130650000Y-57195000D03*
D11*
%TO.P,J7,1,Pin_1*%
%TO.N,Net-(J5-Pin_3)*%
X128110000Y-57195000D03*
%TD*%
%TO.P,J10,1,Pin_1*%
%TO.N,Net-(J1-Pin_3)*%
X122715000Y-53875000D03*
D12*
%TO.P,J10,2,Pin_2*%
%TO.N,Net-(J1-Pin_4)*%
X120175000Y-53875000D03*
%TO.P,J10,3,Pin_3*%
%TO.N,unconnected-(J10-Pin_3-Pad3)*%
X117635000Y-53875000D03*
%TD*%
D10*
%TO.P,T1,1,+*%
%TO.N,Net-(J1-Pin_1)*%
X179425000Y-55550000D03*
%TO.P,T1,2,-*%
%TO.N,Net-(J1-Pin_2)*%
X183925000Y-55550000D03*
%TD*%
D11*
%TO.P,J8,1,Pin_1*%
%TO.N,Net-(J1-Pin_3)*%
X122715000Y-62325000D03*
D12*
%TO.P,J8,2,Pin_2*%
%TO.N,Net-(J1-Pin_4)*%
X120175000Y-62325000D03*
%TO.P,J8,3,Pin_3*%
%TO.N,Net-(J7-Pin_5)*%
X117635000Y-62325000D03*
%TD*%
D11*
%TO.P,J5,1,Pin_1*%
%TO.N,Net-(J1-Pin_3)*%
X122715000Y-56675000D03*
D12*
%TO.P,J5,2,Pin_2*%
%TO.N,Net-(J1-Pin_4)*%
X120175000Y-56675000D03*
%TO.P,J5,3,Pin_3*%
%TO.N,Net-(J5-Pin_3)*%
X117635000Y-56675000D03*
%TD*%
D15*
%TO.N,Net-(J1-Pin_4)*%
X143980000Y-52700000D02*
X144555000Y-52125000D01*
X120175000Y-53875000D02*
X121350000Y-52700000D01*
X121350000Y-52700000D02*
X143980000Y-52700000D01*
X120175000Y-65100000D02*
X120175000Y-53875000D01*
D16*
%TO.N,Net-(T3--)*%
X199500000Y-62800000D02*
X199525000Y-62825000D01*
X199500000Y-55600000D02*
X199500000Y-62800000D01*
X199500000Y-55600000D02*
X199525000Y-55625000D01*
%TD*%
%TA.AperFunction,Conductor*%
%TO.N,Net-(J1-Pin_3)*%
G36*
X130900000Y-64379498D02*
G01*
X130792315Y-64330320D01*
X130685763Y-64315000D01*
X130614237Y-64315000D01*
X130507685Y-64330320D01*
X130400000Y-64379498D01*
X130400000Y-62710501D01*
X130507685Y-62759680D01*
X130614237Y-62775000D01*
X130685763Y-62775000D01*
X130792315Y-62759680D01*
X130900000Y-62710501D01*
X130900000Y-64379498D01*
G37*
%TD.AperFunction*%
%TA.AperFunction,Conductor*%
G36*
X130900000Y-61839498D02*
G01*
X130792315Y-61790320D01*
X130685763Y-61775000D01*
X130614237Y-61775000D01*
X130507685Y-61790320D01*
X130400000Y-61839498D01*
X130400000Y-60170501D01*
X130507685Y-60219680D01*
X130614237Y-60235000D01*
X130685763Y-60235000D01*
X130792315Y-60219680D01*
X130900000Y-60170501D01*
X130900000Y-61839498D01*
G37*
%TD.AperFunction*%
%TA.AperFunction,Conductor*%
G36*
X130900000Y-59299498D02*
G01*
X130792315Y-59250320D01*
X130685763Y-59235000D01*
X130614237Y-59235000D01*
X130507685Y-59250320D01*
X130400000Y-59299498D01*
X130400000Y-57630501D01*
X130507685Y-57679680D01*
X130614237Y-57695000D01*
X130685763Y-57695000D01*
X130792315Y-57679680D01*
X130900000Y-57630501D01*
X130900000Y-59299498D01*
G37*
%TD.AperFunction*%
%TA.AperFunction,Conductor*%
G36*
X147345000Y-53205633D02*
G01*
X147558483Y-53148433D01*
X147558492Y-53148429D01*
X147772579Y-53048599D01*
X147804875Y-53025985D01*
X147871080Y-53003657D01*
X147938848Y-53020666D01*
X147986662Y-53071613D01*
X148000000Y-53127559D01*
X148000000Y-66875500D01*
X147980315Y-66942539D01*
X147927511Y-66988294D01*
X147876000Y-66999500D01*
X121699249Y-66999500D01*
X121632210Y-66979815D01*
X121586455Y-66927011D01*
X121575249Y-66875294D01*
X121575783Y-66554160D01*
X121595579Y-66487156D01*
X121648459Y-66441489D01*
X121717634Y-66431661D01*
X121743116Y-66438187D01*
X121757620Y-66443596D01*
X121757627Y-66443598D01*
X121817155Y-66449999D01*
X121817172Y-66450000D01*
X122465000Y-66450000D01*
X122465000Y-65535501D01*
X122572685Y-65584680D01*
X122679237Y-65600000D01*
X122750763Y-65600000D01*
X122857315Y-65584680D01*
X122965000Y-65535501D01*
X122965000Y-66450000D01*
X123612828Y-66450000D01*
X123612844Y-66449999D01*
X123672372Y-66443598D01*
X123672379Y-66443596D01*
X123807086Y-66393354D01*
X123807093Y-66393350D01*
X123922187Y-66307190D01*
X123922190Y-66307187D01*
X124008350Y-66192093D01*
X124008354Y-66192086D01*
X124058596Y-66057379D01*
X124058598Y-66057372D01*
X124064999Y-65997844D01*
X124065000Y-65997827D01*
X124065000Y-65350000D01*
X123148686Y-65350000D01*
X123174493Y-65309844D01*
X123215000Y-65171889D01*
X123215000Y-65028111D01*
X123174493Y-64890156D01*
X123148686Y-64850000D01*
X124065000Y-64850000D01*
X124065000Y-64815005D01*
X126746844Y-64815005D01*
X126765434Y-65039359D01*
X126765436Y-65039371D01*
X126820703Y-65257614D01*
X126911140Y-65463792D01*
X127034276Y-65652265D01*
X127034284Y-65652276D01*
X127186756Y-65817902D01*
X127186760Y-65817906D01*
X127364424Y-65956189D01*
X127364425Y-65956189D01*
X127364427Y-65956191D01*
X127441396Y-65997844D01*
X127562426Y-66063342D01*
X127775365Y-66136444D01*
X127997431Y-66173500D01*
X128222569Y-66173500D01*
X128444635Y-66136444D01*
X128657574Y-66063342D01*
X128855576Y-65956189D01*
X129033240Y-65817906D01*
X129154594Y-65686082D01*
X129185715Y-65652276D01*
X129185715Y-65652275D01*
X129185722Y-65652268D01*
X129279749Y-65508347D01*
X129332894Y-65462994D01*
X129402125Y-65453570D01*
X129465461Y-65483072D01*
X129485130Y-65505048D01*
X129611890Y-65686078D01*
X129778917Y-65853105D01*
X129972421Y-65988600D01*
X130186507Y-66088429D01*
X130186516Y-66088433D01*
X130400000Y-66145634D01*
X130400000Y-65250501D01*
X130507685Y-65299680D01*
X130614237Y-65315000D01*
X130685763Y-65315000D01*
X130792315Y-65299680D01*
X130900000Y-65250501D01*
X130900000Y-66145633D01*
X131113483Y-66088433D01*
X131113492Y-66088429D01*
X131327578Y-65988600D01*
X131521082Y-65853105D01*
X131688105Y-65686082D01*
X131823600Y-65492578D01*
X131923429Y-65278492D01*
X131923432Y-65278486D01*
X131980636Y-65065000D01*
X131083686Y-65065000D01*
X131109493Y-65024844D01*
X131150000Y-64886889D01*
X131150000Y-64743111D01*
X131109493Y-64605156D01*
X131083686Y-64565000D01*
X131980636Y-64565000D01*
X131980635Y-64564999D01*
X131923432Y-64351513D01*
X131923429Y-64351507D01*
X131823600Y-64137422D01*
X131823599Y-64137420D01*
X131688113Y-63943926D01*
X131688108Y-63943920D01*
X131521082Y-63776894D01*
X131334968Y-63646575D01*
X131291344Y-63591998D01*
X131284151Y-63522499D01*
X131315673Y-63460145D01*
X131334968Y-63443425D01*
X131521082Y-63313105D01*
X131688105Y-63146082D01*
X131823600Y-62952578D01*
X131923429Y-62738492D01*
X131923432Y-62738486D01*
X131980636Y-62525000D01*
X131083686Y-62525000D01*
X131109493Y-62484844D01*
X131150000Y-62346889D01*
X131150000Y-62203111D01*
X131109493Y-62065156D01*
X131083686Y-62025000D01*
X131980636Y-62025000D01*
X131980635Y-62024999D01*
X131923432Y-61811513D01*
X131923429Y-61811507D01*
X131823600Y-61597422D01*
X131823599Y-61597420D01*
X131688113Y-61403926D01*
X131688108Y-61403920D01*
X131521082Y-61236894D01*
X131334968Y-61106575D01*
X131291344Y-61051998D01*
X131284151Y-60982499D01*
X131315673Y-60920145D01*
X131334968Y-60903425D01*
X131521082Y-60773105D01*
X131688105Y-60606082D01*
X131823600Y-60412578D01*
X131923429Y-60198492D01*
X131923432Y-60198486D01*
X131980636Y-59985000D01*
X131083686Y-59985000D01*
X131109493Y-59944844D01*
X131150000Y-59806889D01*
X131150000Y-59663111D01*
X131109493Y-59525156D01*
X131083686Y-59485000D01*
X131980636Y-59485000D01*
X131980635Y-59484999D01*
X131923432Y-59271513D01*
X131923429Y-59271507D01*
X131823600Y-59057422D01*
X131823599Y-59057420D01*
X131688113Y-58863926D01*
X131688108Y-58863920D01*
X131521082Y-58696894D01*
X131334968Y-58566575D01*
X131291344Y-58511998D01*
X131284151Y-58442499D01*
X131315673Y-58380145D01*
X131334968Y-58363425D01*
X131521082Y-58233105D01*
X131688105Y-58066082D01*
X131823600Y-57872578D01*
X131923429Y-57658492D01*
X131923432Y-57658486D01*
X131980636Y-57445000D01*
X131083686Y-57445000D01*
X131109493Y-57404844D01*
X131150000Y-57266889D01*
X131150000Y-57123111D01*
X131109493Y-56985156D01*
X131083686Y-56945000D01*
X131980636Y-56945000D01*
X131980635Y-56944999D01*
X131923432Y-56731513D01*
X131923429Y-56731507D01*
X131823600Y-56517422D01*
X131823599Y-56517420D01*
X131688113Y-56323926D01*
X131688108Y-56323920D01*
X131521082Y-56156894D01*
X131327578Y-56021399D01*
X131113492Y-55921570D01*
X131113486Y-55921567D01*
X130900000Y-55864364D01*
X130900000Y-56759498D01*
X130792315Y-56710320D01*
X130685763Y-56695000D01*
X130614237Y-56695000D01*
X130507685Y-56710320D01*
X130400000Y-56759498D01*
X130400000Y-55864364D01*
X130399999Y-55864364D01*
X130186513Y-55921567D01*
X130186507Y-55921570D01*
X129972422Y-56021399D01*
X129972420Y-56021400D01*
X129778926Y-56156886D01*
X129663084Y-56272728D01*
X129601761Y-56306212D01*
X129532069Y-56301228D01*
X129476136Y-56259356D01*
X129459223Y-56228384D01*
X129410889Y-56098796D01*
X129323261Y-55981739D01*
X129206204Y-55894111D01*
X129069203Y-55843011D01*
X129008654Y-55836500D01*
X129008638Y-55836500D01*
X127211362Y-55836500D01*
X127211345Y-55836500D01*
X127150797Y-55843011D01*
X127150795Y-55843011D01*
X127013795Y-55894111D01*
X126896739Y-55981739D01*
X126809111Y-56098795D01*
X126758011Y-56235795D01*
X126758011Y-56235797D01*
X126751500Y-56296345D01*
X126751500Y-58093654D01*
X126758011Y-58154202D01*
X126758011Y-58154204D01*
X126809111Y-58291204D01*
X126896739Y-58408261D01*
X127013796Y-58495889D01*
X127065737Y-58515262D01*
X127131595Y-58539827D01*
X127187528Y-58581699D01*
X127211944Y-58647163D01*
X127197092Y-58715436D01*
X127179490Y-58739991D01*
X127034279Y-58897730D01*
X127034276Y-58897734D01*
X126911140Y-59086207D01*
X126820703Y-59292385D01*
X126765436Y-59510628D01*
X126765434Y-59510640D01*
X126746844Y-59734994D01*
X126746844Y-59735005D01*
X126765434Y-59959359D01*
X126765436Y-59959371D01*
X126820703Y-60177614D01*
X126911140Y-60383792D01*
X127034276Y-60572265D01*
X127034284Y-60572276D01*
X127186756Y-60737902D01*
X127186760Y-60737906D01*
X127364424Y-60876189D01*
X127364429Y-60876191D01*
X127364431Y-60876193D01*
X127400930Y-60895946D01*
X127450520Y-60945165D01*
X127465628Y-61013382D01*
X127441457Y-61078937D01*
X127400930Y-61114054D01*
X127364431Y-61133806D01*
X127364422Y-61133812D01*
X127186761Y-61272092D01*
X127186756Y-61272097D01*
X127034284Y-61437723D01*
X127034276Y-61437734D01*
X126911140Y-61626207D01*
X126820703Y-61832385D01*
X126765436Y-62050628D01*
X126765434Y-62050640D01*
X126746844Y-62274994D01*
X126746844Y-62275005D01*
X126765434Y-62499359D01*
X126765436Y-62499371D01*
X126820703Y-62717614D01*
X126911140Y-62923792D01*
X127034276Y-63112265D01*
X127034284Y-63112276D01*
X127136071Y-63222844D01*
X127186760Y-63277906D01*
X127364424Y-63416189D01*
X127364429Y-63416191D01*
X127364431Y-63416193D01*
X127400930Y-63435946D01*
X127450520Y-63485165D01*
X127465628Y-63553382D01*
X127441457Y-63618937D01*
X127400930Y-63654054D01*
X127364431Y-63673806D01*
X127364422Y-63673812D01*
X127186761Y-63812092D01*
X127186756Y-63812097D01*
X127034284Y-63977723D01*
X127034276Y-63977734D01*
X126911140Y-64166207D01*
X126820703Y-64372385D01*
X126765436Y-64590628D01*
X126765434Y-64590640D01*
X126746844Y-64814994D01*
X126746844Y-64815005D01*
X124065000Y-64815005D01*
X124065000Y-64202172D01*
X124064999Y-64202155D01*
X124058598Y-64142627D01*
X124058596Y-64142620D01*
X124008354Y-64007913D01*
X124008350Y-64007906D01*
X123922190Y-63892812D01*
X123922187Y-63892809D01*
X123813928Y-63811766D01*
X123772057Y-63755833D01*
X123767073Y-63686141D01*
X123800559Y-63624818D01*
X123813928Y-63613234D01*
X123922187Y-63532190D01*
X123922190Y-63532187D01*
X124008350Y-63417093D01*
X124008354Y-63417086D01*
X124058596Y-63282379D01*
X124058598Y-63282372D01*
X124064999Y-63222844D01*
X124065000Y-63222827D01*
X124065000Y-62575000D01*
X123148686Y-62575000D01*
X123174493Y-62534844D01*
X123215000Y-62396889D01*
X123215000Y-62253111D01*
X123174493Y-62115156D01*
X123148686Y-62075000D01*
X124065000Y-62075000D01*
X124065000Y-61427172D01*
X124064999Y-61427155D01*
X124058598Y-61367627D01*
X124058596Y-61367620D01*
X124008354Y-61232913D01*
X124008350Y-61232906D01*
X123922190Y-61117812D01*
X123922187Y-61117809D01*
X123807093Y-61031649D01*
X123807084Y-61031644D01*
X123799141Y-61028682D01*
X123743207Y-60986812D01*
X123718789Y-60921348D01*
X123733640Y-60853075D01*
X123783044Y-60803669D01*
X123799141Y-60796318D01*
X123807084Y-60793355D01*
X123807093Y-60793350D01*
X123922187Y-60707190D01*
X123922190Y-60707187D01*
X124008350Y-60592093D01*
X124008354Y-60592086D01*
X124058596Y-60457379D01*
X124058598Y-60457372D01*
X124064999Y-60397844D01*
X124065000Y-60397827D01*
X124065000Y-59750000D01*
X123148686Y-59750000D01*
X123174493Y-59709844D01*
X123215000Y-59571889D01*
X123215000Y-59428111D01*
X123174493Y-59290156D01*
X123148686Y-59250000D01*
X124065000Y-59250000D01*
X124065000Y-58602172D01*
X124064999Y-58602155D01*
X124058598Y-58542627D01*
X124058596Y-58542620D01*
X124008354Y-58407913D01*
X124008350Y-58407906D01*
X123922190Y-58292812D01*
X123922187Y-58292809D01*
X123807093Y-58206649D01*
X123807084Y-58206644D01*
X123799141Y-58203682D01*
X123743207Y-58161812D01*
X123718789Y-58096348D01*
X123733640Y-58028075D01*
X123783044Y-57978669D01*
X123799141Y-57971318D01*
X123807084Y-57968355D01*
X123807093Y-57968350D01*
X123922187Y-57882190D01*
X123922190Y-57882187D01*
X124008350Y-57767093D01*
X124008354Y-57767086D01*
X124058596Y-57632379D01*
X124058598Y-57632372D01*
X124064999Y-57572844D01*
X124065000Y-57572827D01*
X124065000Y-56925000D01*
X123148686Y-56925000D01*
X123174493Y-56884844D01*
X123215000Y-56746889D01*
X123215000Y-56603111D01*
X123174493Y-56465156D01*
X123148686Y-56425000D01*
X124065000Y-56425000D01*
X124065000Y-55777172D01*
X124064999Y-55777155D01*
X124058598Y-55717627D01*
X124058596Y-55717620D01*
X124008354Y-55582913D01*
X124008350Y-55582906D01*
X123922190Y-55467812D01*
X123922187Y-55467809D01*
X123799989Y-55376331D01*
X123801530Y-55374271D01*
X123761687Y-55334430D01*
X123746834Y-55266157D01*
X123771249Y-55200692D01*
X123800951Y-55174954D01*
X123799989Y-55173669D01*
X123922187Y-55082190D01*
X123922190Y-55082187D01*
X124008350Y-54967093D01*
X124008354Y-54967086D01*
X124058596Y-54832379D01*
X124058598Y-54832372D01*
X124064999Y-54772844D01*
X124065000Y-54772827D01*
X124065000Y-54125000D01*
X123148686Y-54125000D01*
X123174493Y-54084844D01*
X123215000Y-53946889D01*
X123215000Y-53803111D01*
X123174493Y-53665156D01*
X123148686Y-53625000D01*
X124065000Y-53625000D01*
X124065000Y-53457500D01*
X124084685Y-53390461D01*
X124137489Y-53344706D01*
X124189000Y-53333500D01*
X143896366Y-53333500D01*
X143912113Y-53335238D01*
X143912139Y-53334968D01*
X143919905Y-53335701D01*
X143919909Y-53335702D01*
X143989958Y-53333500D01*
X144019856Y-53333500D01*
X144019857Y-53333500D01*
X144021222Y-53333327D01*
X144026862Y-53332614D01*
X144032685Y-53332156D01*
X144058708Y-53331338D01*
X144079890Y-53330673D01*
X144089681Y-53327827D01*
X144099481Y-53324980D01*
X144118538Y-53321032D01*
X144138797Y-53318474D01*
X144182721Y-53301082D01*
X144188221Y-53299199D01*
X144233593Y-53286018D01*
X144251165Y-53275625D01*
X144268632Y-53267068D01*
X144287617Y-53259552D01*
X144303651Y-53247901D01*
X144369453Y-53224421D01*
X144396947Y-53225909D01*
X144442431Y-53233500D01*
X144442436Y-53233500D01*
X144667569Y-53233500D01*
X144889635Y-53196444D01*
X145102574Y-53123342D01*
X145300576Y-53016189D01*
X145478240Y-52877906D01*
X145577614Y-52769957D01*
X145630715Y-52712276D01*
X145630715Y-52712275D01*
X145630722Y-52712268D01*
X145724749Y-52568347D01*
X145777894Y-52522994D01*
X145847125Y-52513570D01*
X145910461Y-52543072D01*
X145930130Y-52565048D01*
X146056890Y-52746078D01*
X146223917Y-52913105D01*
X146417421Y-53048600D01*
X146631507Y-53148429D01*
X146631516Y-53148433D01*
X146845000Y-53205634D01*
X146845000Y-52310501D01*
X146952685Y-52359680D01*
X147059237Y-52375000D01*
X147130763Y-52375000D01*
X147237315Y-52359680D01*
X147345000Y-52310501D01*
X147345000Y-53205633D01*
G37*
%TD.AperFunction*%
%TA.AperFunction,Conductor*%
G36*
X122965000Y-64664498D02*
G01*
X122857315Y-64615320D01*
X122750763Y-64600000D01*
X122679237Y-64600000D01*
X122572685Y-64615320D01*
X122465000Y-64664498D01*
X122465000Y-62760501D01*
X122572685Y-62809680D01*
X122679237Y-62825000D01*
X122750763Y-62825000D01*
X122857315Y-62809680D01*
X122965000Y-62760501D01*
X122965000Y-64664498D01*
G37*
%TD.AperFunction*%
%TD*%
%TA.AperFunction,Conductor*%
%TO.N,Net-(J1-Pin_1)*%
G36*
X151715507Y-52084844D02*
G01*
X151793239Y-52205798D01*
X151901900Y-52299952D01*
X152032685Y-52359680D01*
X152139237Y-52375000D01*
X152210763Y-52375000D01*
X152317315Y-52359680D01*
X152448100Y-52299952D01*
X152556761Y-52205798D01*
X152634493Y-52084844D01*
X152659258Y-52000500D01*
X152801000Y-52000500D01*
X152868039Y-52020185D01*
X152913794Y-52072989D01*
X152925000Y-52124500D01*
X152925000Y-53225000D01*
X153072828Y-53225000D01*
X153072844Y-53224999D01*
X153132372Y-53218598D01*
X153132379Y-53218596D01*
X153267086Y-53168354D01*
X153267093Y-53168350D01*
X153382187Y-53082190D01*
X153382190Y-53082187D01*
X153468350Y-52967093D01*
X153468354Y-52967086D01*
X153518596Y-52832379D01*
X153518598Y-52832372D01*
X153524999Y-52772844D01*
X153525000Y-52772827D01*
X153525000Y-52124500D01*
X153544685Y-52057461D01*
X153597489Y-52011706D01*
X153649000Y-52000500D01*
X203626871Y-52000500D01*
X203693910Y-52020185D01*
X203739665Y-52072989D01*
X203750869Y-52123880D01*
X203799500Y-61850000D01*
X203799500Y-66825930D01*
X203779815Y-66892969D01*
X203727011Y-66938724D01*
X203675444Y-66949930D01*
X148823944Y-66925056D01*
X148756913Y-66905341D01*
X148711182Y-66852516D01*
X148700000Y-66801056D01*
X148700000Y-62625000D01*
X177220065Y-62625000D01*
X177239784Y-62925852D01*
X177239786Y-62925864D01*
X177298602Y-63221553D01*
X177298606Y-63221568D01*
X177395516Y-63507055D01*
X177395525Y-63507076D01*
X177457199Y-63632138D01*
X177457200Y-63632138D01*
X178179761Y-62909577D01*
X178205518Y-63029087D01*
X178292788Y-63246268D01*
X178415507Y-63445577D01*
X178570144Y-63621278D01*
X178752251Y-63768319D01*
X178956588Y-63882469D01*
X179177278Y-63960443D01*
X179239540Y-63971119D01*
X178517859Y-64692798D01*
X178517859Y-64692799D01*
X178642936Y-64754480D01*
X178928431Y-64851393D01*
X178928446Y-64851397D01*
X179224135Y-64910213D01*
X179224147Y-64910215D01*
X179525000Y-64929934D01*
X179825852Y-64910215D01*
X179825864Y-64910213D01*
X180121553Y-64851397D01*
X180121568Y-64851393D01*
X180407057Y-64754482D01*
X180407062Y-64754480D01*
X180532139Y-64692799D01*
X180532139Y-64692798D01*
X179810775Y-63971435D01*
X179984723Y-63926144D01*
X180198005Y-63829734D01*
X180391925Y-63698667D01*
X180560906Y-63536712D01*
X180700086Y-63348529D01*
X180805460Y-63139531D01*
X180873998Y-62915731D01*
X180874269Y-62913609D01*
X181592798Y-63632139D01*
X181592799Y-63632139D01*
X181654476Y-63507070D01*
X181655934Y-63503551D01*
X181699767Y-63449141D01*
X181766058Y-63427067D01*
X181833760Y-63444336D01*
X181881378Y-63495466D01*
X181886028Y-63506595D01*
X181886094Y-63506569D01*
X181887648Y-63510322D01*
X182021488Y-63781722D01*
X182021492Y-63781729D01*
X182189612Y-64033339D01*
X182389141Y-64260858D01*
X182616660Y-64460387D01*
X182868270Y-64628507D01*
X182868277Y-64628511D01*
X183139677Y-64762351D01*
X183139687Y-64762355D01*
X183344796Y-64831979D01*
X183426234Y-64859624D01*
X183723034Y-64918661D01*
X184025000Y-64938453D01*
X184326966Y-64918661D01*
X184623766Y-64859624D01*
X184816813Y-64794093D01*
X184910312Y-64762355D01*
X184910322Y-64762351D01*
X184926283Y-64754480D01*
X185181727Y-64628509D01*
X185433341Y-64460386D01*
X185660858Y-64260858D01*
X185860386Y-64033341D01*
X186028509Y-63781727D01*
X186162352Y-63510320D01*
X186163456Y-63507070D01*
X186194093Y-63416813D01*
X186259624Y-63223766D01*
X186318661Y-62926966D01*
X186338453Y-62625000D01*
X186318661Y-62323034D01*
X186259624Y-62026234D01*
X186162352Y-61739680D01*
X186162344Y-61739663D01*
X186028514Y-61468283D01*
X186028505Y-61468268D01*
X185980221Y-61396006D01*
X185860386Y-61216659D01*
X185730316Y-61068343D01*
X185660858Y-60989141D01*
X185433339Y-60789612D01*
X185181729Y-60621492D01*
X185181722Y-60621488D01*
X184910322Y-60487648D01*
X184910312Y-60487644D01*
X184623779Y-60390380D01*
X184623773Y-60390378D01*
X184623766Y-60390376D01*
X184326966Y-60331339D01*
X184025000Y-60311547D01*
X183723034Y-60331339D01*
X183723028Y-60331340D01*
X183723023Y-60331341D01*
X183426239Y-60390375D01*
X183426225Y-60390378D01*
X183139684Y-60487646D01*
X183139663Y-60487655D01*
X182868283Y-60621485D01*
X182868268Y-60621494D01*
X182616657Y-60789615D01*
X182389141Y-60989141D01*
X182189615Y-61216657D01*
X182021494Y-61468268D01*
X182021485Y-61468283D01*
X181887655Y-61739663D01*
X181886101Y-61743418D01*
X181885854Y-61743315D01*
X181885852Y-61743321D01*
X181885774Y-61743282D01*
X181885041Y-61742979D01*
X181847712Y-61796043D01*
X181782997Y-61822382D01*
X181714315Y-61809552D01*
X181663473Y-61761627D01*
X181655937Y-61746455D01*
X181654476Y-61742927D01*
X181592798Y-61617859D01*
X180870238Y-62340420D01*
X180844482Y-62220913D01*
X180757212Y-62003732D01*
X180634493Y-61804423D01*
X180479856Y-61628722D01*
X180297749Y-61481681D01*
X180093412Y-61367531D01*
X179872722Y-61289557D01*
X179810459Y-61278880D01*
X180532138Y-60557200D01*
X180532138Y-60557199D01*
X180407076Y-60495525D01*
X180407055Y-60495516D01*
X180121568Y-60398606D01*
X180121553Y-60398602D01*
X179825864Y-60339786D01*
X179825852Y-60339784D01*
X179525000Y-60320065D01*
X179224147Y-60339784D01*
X179224135Y-60339786D01*
X178928446Y-60398602D01*
X178928426Y-60398607D01*
X178642947Y-60495514D01*
X178642937Y-60495518D01*
X178517860Y-60557199D01*
X178517860Y-60557200D01*
X179239224Y-61278564D01*
X179065277Y-61323856D01*
X178851995Y-61420266D01*
X178658075Y-61551333D01*
X178489094Y-61713288D01*
X178349914Y-61901471D01*
X178244540Y-62110469D01*
X178176002Y-62334269D01*
X178175730Y-62336389D01*
X177457200Y-61617860D01*
X177457199Y-61617860D01*
X177395518Y-61742937D01*
X177395514Y-61742947D01*
X177298607Y-62028426D01*
X177298602Y-62028446D01*
X177239786Y-62324135D01*
X177239784Y-62324147D01*
X177220065Y-62625000D01*
X148700000Y-62625000D01*
X148700000Y-55550000D01*
X157045065Y-55550000D01*
X157064784Y-55850852D01*
X157064786Y-55850864D01*
X157123602Y-56146553D01*
X157123606Y-56146568D01*
X157220516Y-56432055D01*
X157220525Y-56432076D01*
X157282199Y-56557138D01*
X157282200Y-56557138D01*
X158004761Y-55834577D01*
X158030518Y-55954087D01*
X158117788Y-56171268D01*
X158240507Y-56370577D01*
X158395144Y-56546278D01*
X158577251Y-56693319D01*
X158781588Y-56807469D01*
X159002278Y-56885443D01*
X159064540Y-56896119D01*
X158342859Y-57617798D01*
X158342859Y-57617799D01*
X158467936Y-57679480D01*
X158753431Y-57776393D01*
X158753446Y-57776397D01*
X159049135Y-57835213D01*
X159049147Y-57835215D01*
X159350000Y-57854934D01*
X159650852Y-57835215D01*
X159650864Y-57835213D01*
X159946553Y-57776397D01*
X159946568Y-57776393D01*
X160232057Y-57679482D01*
X160232062Y-57679480D01*
X160357139Y-57617799D01*
X160357139Y-57617798D01*
X159635775Y-56896435D01*
X159809723Y-56851144D01*
X160023005Y-56754734D01*
X160216925Y-56623667D01*
X160385906Y-56461712D01*
X160525086Y-56273529D01*
X160630460Y-56064531D01*
X160698998Y-55840731D01*
X160699269Y-55838609D01*
X161417798Y-56557139D01*
X161417799Y-56557139D01*
X161479476Y-56432070D01*
X161480934Y-56428551D01*
X161524767Y-56374141D01*
X161591058Y-56352067D01*
X161658760Y-56369336D01*
X161706378Y-56420466D01*
X161711028Y-56431595D01*
X161711094Y-56431569D01*
X161712648Y-56435322D01*
X161846488Y-56706722D01*
X161846492Y-56706729D01*
X162014612Y-56958339D01*
X162214141Y-57185858D01*
X162441660Y-57385387D01*
X162693270Y-57553507D01*
X162693277Y-57553511D01*
X162964677Y-57687351D01*
X162964687Y-57687355D01*
X163169796Y-57756979D01*
X163251234Y-57784624D01*
X163548034Y-57843661D01*
X163850000Y-57863453D01*
X164151966Y-57843661D01*
X164448766Y-57784624D01*
X164641813Y-57719093D01*
X164735312Y-57687355D01*
X164735322Y-57687351D01*
X164751283Y-57679480D01*
X165006727Y-57553509D01*
X165258341Y-57385386D01*
X165485858Y-57185858D01*
X165685386Y-56958341D01*
X165853509Y-56706727D01*
X165987352Y-56435320D01*
X165988456Y-56432070D01*
X166025300Y-56323529D01*
X166084624Y-56148766D01*
X166143661Y-55851966D01*
X166163453Y-55550000D01*
X177120065Y-55550000D01*
X177139784Y-55850852D01*
X177139786Y-55850864D01*
X177198602Y-56146553D01*
X177198606Y-56146568D01*
X177295516Y-56432055D01*
X177295525Y-56432076D01*
X177357199Y-56557138D01*
X177357200Y-56557138D01*
X178079761Y-55834576D01*
X178105518Y-55954087D01*
X178192788Y-56171268D01*
X178315507Y-56370577D01*
X178470144Y-56546278D01*
X178652251Y-56693319D01*
X178856588Y-56807469D01*
X179077278Y-56885443D01*
X179139540Y-56896119D01*
X178417859Y-57617798D01*
X178417859Y-57617799D01*
X178542936Y-57679480D01*
X178828431Y-57776393D01*
X178828446Y-57776397D01*
X179124135Y-57835213D01*
X179124147Y-57835215D01*
X179425000Y-57854934D01*
X179725852Y-57835215D01*
X179725864Y-57835213D01*
X180021553Y-57776397D01*
X180021568Y-57776393D01*
X180307057Y-57679482D01*
X180307062Y-57679480D01*
X180432139Y-57617799D01*
X180432139Y-57617798D01*
X179710775Y-56896435D01*
X179884723Y-56851144D01*
X180098005Y-56754734D01*
X180291925Y-56623667D01*
X180460906Y-56461712D01*
X180600086Y-56273529D01*
X180705460Y-56064531D01*
X180773998Y-55840731D01*
X180774269Y-55838609D01*
X181492798Y-56557139D01*
X181492799Y-56557139D01*
X181554476Y-56432070D01*
X181555934Y-56428551D01*
X181599767Y-56374141D01*
X181666058Y-56352067D01*
X181733760Y-56369336D01*
X181781378Y-56420466D01*
X181786028Y-56431595D01*
X181786094Y-56431569D01*
X181787648Y-56435322D01*
X181921488Y-56706722D01*
X181921492Y-56706729D01*
X182089612Y-56958339D01*
X182289141Y-57185858D01*
X182516660Y-57385387D01*
X182768270Y-57553507D01*
X182768277Y-57553511D01*
X183039677Y-57687351D01*
X183039687Y-57687355D01*
X183244796Y-57756979D01*
X183326234Y-57784624D01*
X183623034Y-57843661D01*
X183925000Y-57863453D01*
X184226966Y-57843661D01*
X184523766Y-57784624D01*
X184716813Y-57719093D01*
X184810312Y-57687355D01*
X184810322Y-57687351D01*
X184826283Y-57679480D01*
X185081727Y-57553509D01*
X185333341Y-57385386D01*
X185560858Y-57185858D01*
X185760386Y-56958341D01*
X185928509Y-56706727D01*
X186062352Y-56435320D01*
X186063456Y-56432070D01*
X186100300Y-56323529D01*
X186159624Y-56148766D01*
X186218661Y-55851966D01*
X186235176Y-55600000D01*
X192695065Y-55600000D01*
X192714784Y-55900852D01*
X192714786Y-55900864D01*
X192773602Y-56196553D01*
X192773606Y-56196568D01*
X192870516Y-56482055D01*
X192870525Y-56482076D01*
X192932199Y-56607138D01*
X192932200Y-56607138D01*
X193654761Y-55884577D01*
X193680518Y-56004087D01*
X193767788Y-56221268D01*
X193890507Y-56420577D01*
X194045144Y-56596278D01*
X194227251Y-56743319D01*
X194431588Y-56857469D01*
X194652278Y-56935443D01*
X194714540Y-56946119D01*
X193992859Y-57667798D01*
X193992859Y-57667799D01*
X194117936Y-57729480D01*
X194403431Y-57826393D01*
X194403446Y-57826397D01*
X194699135Y-57885213D01*
X194699147Y-57885215D01*
X195000000Y-57904934D01*
X195300852Y-57885215D01*
X195300864Y-57885213D01*
X195596553Y-57826397D01*
X195596568Y-57826393D01*
X195882057Y-57729482D01*
X195882062Y-57729480D01*
X196007139Y-57667799D01*
X196007139Y-57667798D01*
X195285775Y-56946435D01*
X195459723Y-56901144D01*
X195673005Y-56804734D01*
X195866925Y-56673667D01*
X196035906Y-56511712D01*
X196175086Y-56323529D01*
X196280460Y-56114531D01*
X196348998Y-55890731D01*
X196349269Y-55888609D01*
X197067798Y-56607139D01*
X197067799Y-56607139D01*
X197129476Y-56482070D01*
X197130934Y-56478551D01*
X197174767Y-56424141D01*
X197241058Y-56402067D01*
X197308760Y-56419336D01*
X197356378Y-56470466D01*
X197361028Y-56481595D01*
X197361094Y-56481569D01*
X197362648Y-56485322D01*
X197496488Y-56756722D01*
X197496492Y-56756729D01*
X197664612Y-57008339D01*
X197664614Y-57008341D01*
X197864142Y-57235858D01*
X197949259Y-57310503D01*
X197986683Y-57369504D01*
X197991500Y-57403731D01*
X197991500Y-59592687D01*
X197971815Y-59659726D01*
X197923795Y-59703171D01*
X197768351Y-59782374D01*
X197768340Y-59782380D01*
X197459926Y-59982666D01*
X197174137Y-60214094D01*
X197174129Y-60214101D01*
X196914101Y-60474129D01*
X196914094Y-60474137D01*
X196682666Y-60759926D01*
X196482382Y-61068338D01*
X196315428Y-61396002D01*
X196183641Y-61739318D01*
X196088458Y-62094544D01*
X196088458Y-62094546D01*
X196030931Y-62457757D01*
X196011685Y-62824999D01*
X196011685Y-62825000D01*
X196030931Y-63192242D01*
X196068124Y-63427067D01*
X196088459Y-63555459D01*
X196176081Y-63882469D01*
X196183641Y-63910681D01*
X196315428Y-64253997D01*
X196482382Y-64581662D01*
X196682666Y-64890073D01*
X196887723Y-65143297D01*
X196914098Y-65175867D01*
X197174133Y-65435902D01*
X197174137Y-65435905D01*
X197459926Y-65667333D01*
X197768337Y-65867617D01*
X197768342Y-65867620D01*
X198096006Y-66034573D01*
X198439326Y-66166361D01*
X198794541Y-66261541D01*
X199157759Y-66319069D01*
X199504688Y-66337250D01*
X199524999Y-66338315D01*
X199525000Y-66338315D01*
X199525001Y-66338315D01*
X199544247Y-66337306D01*
X199892241Y-66319069D01*
X200255459Y-66261541D01*
X200610674Y-66166361D01*
X200953994Y-66034573D01*
X201281658Y-65867620D01*
X201590075Y-65667332D01*
X201875867Y-65435902D01*
X202135902Y-65175867D01*
X202367332Y-64890075D01*
X202567620Y-64581658D01*
X202734573Y-64253994D01*
X202866361Y-63910674D01*
X202961541Y-63555459D01*
X203019069Y-63192241D01*
X203038315Y-62825000D01*
X203019069Y-62457759D01*
X202961541Y-62094541D01*
X202866361Y-61739326D01*
X202734573Y-61396006D01*
X202567620Y-61068343D01*
X202386613Y-60789615D01*
X202367333Y-60759926D01*
X202203168Y-60557200D01*
X202135902Y-60474133D01*
X201875867Y-60214098D01*
X201590075Y-59982668D01*
X201590073Y-59982666D01*
X201281662Y-59782382D01*
X201076205Y-59677696D01*
X201025409Y-59629721D01*
X201008500Y-59567211D01*
X201008500Y-57403731D01*
X201028185Y-57336692D01*
X201050739Y-57310505D01*
X201135858Y-57235858D01*
X201335386Y-57008341D01*
X201503509Y-56756727D01*
X201637352Y-56485320D01*
X201638456Y-56482070D01*
X201682585Y-56352067D01*
X201734624Y-56198766D01*
X201793661Y-55901966D01*
X201813453Y-55600000D01*
X201793661Y-55298034D01*
X201734624Y-55001234D01*
X201637352Y-54714680D01*
X201614538Y-54668418D01*
X201503514Y-54443283D01*
X201503505Y-54443268D01*
X201402786Y-54292531D01*
X201335386Y-54191659D01*
X201291535Y-54141657D01*
X201135858Y-53964141D01*
X200908339Y-53764612D01*
X200656729Y-53596492D01*
X200656722Y-53596488D01*
X200385322Y-53462648D01*
X200385312Y-53462644D01*
X200098779Y-53365380D01*
X200098773Y-53365378D01*
X200098766Y-53365376D01*
X199801966Y-53306339D01*
X199500000Y-53286547D01*
X199198034Y-53306339D01*
X199198028Y-53306340D01*
X199198023Y-53306341D01*
X198901239Y-53365375D01*
X198901225Y-53365378D01*
X198614684Y-53462646D01*
X198614663Y-53462655D01*
X198343283Y-53596485D01*
X198343268Y-53596494D01*
X198091657Y-53764615D01*
X197864141Y-53964141D01*
X197664615Y-54191657D01*
X197496494Y-54443268D01*
X197496485Y-54443283D01*
X197362655Y-54714663D01*
X197361101Y-54718418D01*
X197360854Y-54718315D01*
X197360852Y-54718321D01*
X197360774Y-54718282D01*
X197360041Y-54717979D01*
X197322712Y-54771043D01*
X197257997Y-54797382D01*
X197189315Y-54784552D01*
X197138473Y-54736627D01*
X197130937Y-54721455D01*
X197129476Y-54717927D01*
X197067798Y-54592859D01*
X196345238Y-55315420D01*
X196319482Y-55195913D01*
X196232212Y-54978732D01*
X196109493Y-54779423D01*
X195954856Y-54603722D01*
X195772749Y-54456681D01*
X195568412Y-54342531D01*
X195347722Y-54264557D01*
X195285459Y-54253880D01*
X196007138Y-53532200D01*
X196007138Y-53532199D01*
X195882076Y-53470525D01*
X195882055Y-53470516D01*
X195596568Y-53373606D01*
X195596553Y-53373602D01*
X195300864Y-53314786D01*
X195300852Y-53314784D01*
X195000000Y-53295065D01*
X194699147Y-53314784D01*
X194699135Y-53314786D01*
X194403446Y-53373602D01*
X194403426Y-53373607D01*
X194117947Y-53470514D01*
X194117937Y-53470518D01*
X193992860Y-53532199D01*
X193992860Y-53532200D01*
X194714224Y-54253564D01*
X194540277Y-54298856D01*
X194326995Y-54395266D01*
X194133075Y-54526333D01*
X193964094Y-54688288D01*
X193824914Y-54876471D01*
X193719540Y-55085469D01*
X193651002Y-55309269D01*
X193650730Y-55311389D01*
X192932200Y-54592860D01*
X192932199Y-54592860D01*
X192870518Y-54717937D01*
X192870514Y-54717947D01*
X192773607Y-55003426D01*
X192773602Y-55003446D01*
X192714786Y-55299135D01*
X192714784Y-55299147D01*
X192695065Y-55600000D01*
X186235176Y-55600000D01*
X186238453Y-55550000D01*
X186218661Y-55248034D01*
X186159624Y-54951234D01*
X186062352Y-54664680D01*
X186032291Y-54603722D01*
X185928514Y-54393283D01*
X185928505Y-54393268D01*
X185816072Y-54225000D01*
X185760386Y-54141659D01*
X185716670Y-54091811D01*
X185560858Y-53914141D01*
X185333339Y-53714612D01*
X185081729Y-53546492D01*
X185081722Y-53546488D01*
X184810322Y-53412648D01*
X184810312Y-53412644D01*
X184523779Y-53315380D01*
X184523773Y-53315378D01*
X184523766Y-53315376D01*
X184226966Y-53256339D01*
X183925000Y-53236547D01*
X183623034Y-53256339D01*
X183623028Y-53256340D01*
X183623023Y-53256341D01*
X183326239Y-53315375D01*
X183326225Y-53315378D01*
X183039684Y-53412646D01*
X183039663Y-53412655D01*
X182768283Y-53546485D01*
X182768268Y-53546494D01*
X182516657Y-53714615D01*
X182289141Y-53914141D01*
X182089615Y-54141657D01*
X181921494Y-54393268D01*
X181921485Y-54393283D01*
X181787655Y-54664663D01*
X181786101Y-54668418D01*
X181785854Y-54668315D01*
X181785852Y-54668321D01*
X181785774Y-54668282D01*
X181785041Y-54667979D01*
X181747712Y-54721043D01*
X181682997Y-54747382D01*
X181614315Y-54734552D01*
X181563473Y-54686627D01*
X181555937Y-54671455D01*
X181554476Y-54667927D01*
X181492798Y-54542859D01*
X180770238Y-55265420D01*
X180744482Y-55145913D01*
X180657212Y-54928732D01*
X180534493Y-54729423D01*
X180379856Y-54553722D01*
X180197749Y-54406681D01*
X179993412Y-54292531D01*
X179772722Y-54214557D01*
X179710459Y-54203880D01*
X180432138Y-53482200D01*
X180432138Y-53482199D01*
X180307076Y-53420525D01*
X180307055Y-53420516D01*
X180021568Y-53323606D01*
X180021553Y-53323602D01*
X179725864Y-53264786D01*
X179725852Y-53264784D01*
X179425000Y-53245065D01*
X179124147Y-53264784D01*
X179124135Y-53264786D01*
X178828446Y-53323602D01*
X178828426Y-53323607D01*
X178542947Y-53420514D01*
X178542937Y-53420518D01*
X178417860Y-53482199D01*
X178417860Y-53482200D01*
X179139224Y-54203564D01*
X178965277Y-54248856D01*
X178751995Y-54345266D01*
X178558075Y-54476333D01*
X178389094Y-54638288D01*
X178249914Y-54826471D01*
X178144540Y-55035469D01*
X178076002Y-55259269D01*
X178075730Y-55261390D01*
X177357200Y-54542860D01*
X177357199Y-54542860D01*
X177295518Y-54667937D01*
X177295514Y-54667947D01*
X177198607Y-54953426D01*
X177198602Y-54953446D01*
X177139786Y-55249135D01*
X177139784Y-55249147D01*
X177120065Y-55550000D01*
X166163453Y-55550000D01*
X166143661Y-55248034D01*
X166084624Y-54951234D01*
X165987352Y-54664680D01*
X165957291Y-54603722D01*
X165853514Y-54393283D01*
X165853505Y-54393268D01*
X165741072Y-54225000D01*
X165685386Y-54141659D01*
X165641670Y-54091811D01*
X165485858Y-53914141D01*
X165258339Y-53714612D01*
X165006729Y-53546492D01*
X165006722Y-53546488D01*
X164735322Y-53412648D01*
X164735312Y-53412644D01*
X164448779Y-53315380D01*
X164448773Y-53315378D01*
X164448766Y-53315376D01*
X164151966Y-53256339D01*
X163850000Y-53236547D01*
X163548034Y-53256339D01*
X163548028Y-53256340D01*
X163548023Y-53256341D01*
X163251239Y-53315375D01*
X163251225Y-53315378D01*
X162964684Y-53412646D01*
X162964663Y-53412655D01*
X162693283Y-53546485D01*
X162693268Y-53546494D01*
X162441657Y-53714615D01*
X162214141Y-53914141D01*
X162014615Y-54141657D01*
X161846494Y-54393268D01*
X161846485Y-54393283D01*
X161712655Y-54664663D01*
X161711101Y-54668418D01*
X161710854Y-54668315D01*
X161710852Y-54668321D01*
X161710774Y-54668282D01*
X161710041Y-54667979D01*
X161672712Y-54721043D01*
X161607997Y-54747382D01*
X161539315Y-54734552D01*
X161488473Y-54686627D01*
X161480937Y-54671455D01*
X161479476Y-54667927D01*
X161417798Y-54542859D01*
X160695238Y-55265420D01*
X160669482Y-55145913D01*
X160582212Y-54928732D01*
X160459493Y-54729423D01*
X160304856Y-54553722D01*
X160122749Y-54406681D01*
X159918412Y-54292531D01*
X159697722Y-54214557D01*
X159635459Y-54203880D01*
X160357138Y-53482200D01*
X160357138Y-53482199D01*
X160232076Y-53420525D01*
X160232055Y-53420516D01*
X159946568Y-53323606D01*
X159946553Y-53323602D01*
X159650864Y-53264786D01*
X159650852Y-53264784D01*
X159350000Y-53245065D01*
X159049147Y-53264784D01*
X159049135Y-53264786D01*
X158753446Y-53323602D01*
X158753426Y-53323607D01*
X158467947Y-53420514D01*
X158467937Y-53420518D01*
X158342860Y-53482199D01*
X158342860Y-53482200D01*
X159064224Y-54203564D01*
X158890277Y-54248856D01*
X158676995Y-54345266D01*
X158483075Y-54476333D01*
X158314094Y-54638288D01*
X158174914Y-54826471D01*
X158069540Y-55035469D01*
X158001002Y-55259269D01*
X158000730Y-55261389D01*
X157282200Y-54542860D01*
X157282199Y-54542860D01*
X157220518Y-54667937D01*
X157220514Y-54667947D01*
X157123607Y-54953426D01*
X157123602Y-54953446D01*
X157064786Y-55249135D01*
X157064784Y-55249147D01*
X157045065Y-55550000D01*
X148700000Y-55550000D01*
X148700000Y-53121564D01*
X148719685Y-53054525D01*
X148772489Y-53008770D01*
X148841647Y-52998826D01*
X148884282Y-53014913D01*
X148884913Y-53013748D01*
X148960263Y-53054525D01*
X149087426Y-53123342D01*
X149300365Y-53196444D01*
X149522431Y-53233500D01*
X149747569Y-53233500D01*
X149969635Y-53196444D01*
X150182574Y-53123342D01*
X150380576Y-53016189D01*
X150558240Y-52877906D01*
X150627908Y-52802226D01*
X150687793Y-52766237D01*
X150757631Y-52768337D01*
X150815247Y-52807860D01*
X150835318Y-52842877D01*
X150881645Y-52967086D01*
X150881649Y-52967093D01*
X150967809Y-53082187D01*
X150967812Y-53082190D01*
X151082906Y-53168350D01*
X151082913Y-53168354D01*
X151217620Y-53218596D01*
X151217627Y-53218598D01*
X151277155Y-53224999D01*
X151277172Y-53225000D01*
X151425000Y-53225000D01*
X151425000Y-52124500D01*
X151444685Y-52057461D01*
X151497489Y-52011706D01*
X151549000Y-52000500D01*
X151690742Y-52000500D01*
X151715507Y-52084844D01*
G37*
%TD.AperFunction*%
%TD*%
M02*
