M48
; DRILL file {KiCad 7.0.8} date Thu Oct 19 00:44:16 2023
; FORMAT={-:-/ absolute / metric / decimal}
; #@! TF.CreationDate,2023-10-19T00:44:16-05:00
; #@! TF.GenerationSoftware,Kicad,Pcbnew,7.0.8
; #@! TF.FileFunction,MixedPlating,1,2
FMAT,2
METRIC
; #@! TA.AperFunction,Plated,PTH,ComponentDrill
T1C1.000
; #@! TA.AperFunction,Plated,PTH,ComponentDrill
T2C2.750
; #@! TA.AperFunction,NonPlated,NPTH,ComponentDrill
T3C3.500
%
G90
G05
T1
X117.635Y-53.875
X117.635Y-56.675
X117.635Y-59.5
X117.635Y-62.325
X117.635Y-65.1
X120.175Y-53.875
X120.175Y-56.675
X120.175Y-59.5
X120.175Y-62.325
X120.175Y-65.1
X122.715Y-53.875
X122.715Y-56.675
X122.715Y-59.5
X122.715Y-62.325
X122.715Y-65.1
X128.11Y-57.195
X128.11Y-59.735
X128.11Y-62.275
X128.11Y-64.815
X130.65Y-57.195
X130.65Y-59.735
X130.65Y-62.275
X130.65Y-64.815
X144.555Y-51.875
X147.095Y-51.875
X149.635Y-51.875
X152.175Y-51.875
T2
X159.35Y-55.55
X163.85Y-55.55
X179.425Y-55.55
X179.525Y-62.625
X183.925Y-55.55
X184.025Y-62.625
X195.0Y-55.6
X199.5Y-55.6
T3
X199.525Y-62.825
T0
M30
