%TF.GenerationSoftware,KiCad,Pcbnew,(6.0.7)*%
%TF.CreationDate,2023-08-08T19:22:38-05:00*%
%TF.ProjectId,PowerDistrubutionBoard,506f7765-7244-4697-9374-727562757469,rev?*%
%TF.SameCoordinates,Original*%
%TF.FileFunction,Soldermask,Bot*%
%TF.FilePolarity,Negative*%
%FSLAX46Y46*%
G04 Gerber Fmt 4.6, Leading zero omitted, Abs format (unit mm)*
G04 Created by KiCad (PCBNEW (6.0.7)) date 2023-08-08 19:22:38*
%MOMM*%
%LPD*%
G01*
G04 APERTURE LIST*
%ADD10C,3.600000*%
%ADD11R,1.700000X1.700000*%
%ADD12O,1.700000X1.700000*%
%ADD13R,1.350000X1.350000*%
%ADD14O,1.350000X1.350000*%
G04 APERTURE END LIST*
D10*
%TO.C,S1*%
X171750000Y-99750000D03*
%TD*%
D11*
%TO.C,J6*%
X101000000Y-86840000D03*
D12*
X101000000Y-89380000D03*
X101000000Y-91920000D03*
X101000000Y-94460000D03*
X101000000Y-97000000D03*
X101000000Y-99540000D03*
X101000000Y-102080000D03*
%TD*%
D11*
%TO.C,J4*%
X106500000Y-86840000D03*
D12*
X106500000Y-89380000D03*
X106500000Y-91920000D03*
X106500000Y-94460000D03*
X106500000Y-97000000D03*
X106500000Y-99540000D03*
X106500000Y-102080000D03*
%TD*%
D10*
%TO.C,T2*%
X137000000Y-88750000D03*
X141500000Y-88750000D03*
%TD*%
D11*
%TO.C,J2*%
X131500000Y-89400000D03*
D12*
X131500000Y-91940000D03*
X131500000Y-94480000D03*
X131500000Y-97020000D03*
X131500000Y-99560000D03*
X131500000Y-102100000D03*
%TD*%
D10*
%TO.C,T3*%
X171780000Y-93000000D03*
X171780000Y-88500000D03*
%TD*%
D13*
%TO.C,J1*%
X126250000Y-87750000D03*
D14*
X126250000Y-89750000D03*
X126250000Y-91750000D03*
X126250000Y-93750000D03*
%TD*%
D10*
%TO.C,T4*%
X153500000Y-88530000D03*
X158000000Y-88530000D03*
%TD*%
D11*
%TO.C,J5*%
X103750000Y-86840000D03*
D12*
X103750000Y-89380000D03*
X103750000Y-91920000D03*
X103750000Y-94460000D03*
X103750000Y-97000000D03*
X103750000Y-99540000D03*
X103750000Y-102080000D03*
%TD*%
D10*
%TO.C,T1*%
X137000000Y-100000000D03*
X141500000Y-100000000D03*
%TD*%
M02*
