M48
; DRILL file {KiCad (6.0.7)} date Tue Aug  8 19:22:52 2023
; FORMAT={-:-/ absolute / metric / decimal}
; #@! TF.CreationDate,2023-08-08T19:22:52-05:00
; #@! TF.GenerationSoftware,Kicad,Pcbnew,(6.0.7)
; #@! TF.FileFunction,MixedPlating,1,2
FMAT,2
METRIC
; #@! TA.AperFunction,Plated,PTH,ComponentDrill
T1C0.800
; #@! TA.AperFunction,Plated,PTH,ComponentDrill
T2C1.000
; #@! TA.AperFunction,Plated,PTH,ComponentDrill
T3C2.750
; #@! TA.AperFunction,NonPlated,NPTH,ComponentDrill
T4C3.500
%
G90
G05
T1
X126.25Y-87.75
X126.25Y-89.75
X126.25Y-91.75
X126.25Y-93.75
T2
X101.0Y-86.84
X101.0Y-89.38
X101.0Y-91.92
X101.0Y-94.46
X101.0Y-97.0
X101.0Y-99.54
X101.0Y-102.08
X103.75Y-86.84
X103.75Y-89.38
X103.75Y-91.92
X103.75Y-94.46
X103.75Y-97.0
X103.75Y-99.54
X103.75Y-102.08
X106.5Y-86.84
X106.5Y-89.38
X106.5Y-91.92
X106.5Y-94.46
X106.5Y-97.0
X106.5Y-99.54
X106.5Y-102.08
X131.5Y-89.4
X131.5Y-91.94
X131.5Y-94.48
X131.5Y-97.02
X131.5Y-99.56
X131.5Y-102.1
T3
X137.0Y-88.75
X137.0Y-100.0
X141.5Y-88.75
X141.5Y-100.0
X153.5Y-88.53
X158.0Y-88.53
X171.78Y-88.5
X171.78Y-93.0
T4
X171.75Y-99.75
T0
M30
