%TF.GenerationSoftware,KiCad,Pcbnew,(6.0.7)*%
%TF.CreationDate,2023-08-08T19:22:38-05:00*%
%TF.ProjectId,PowerDistrubutionBoard,506f7765-7244-4697-9374-727562757469,rev?*%
%TF.SameCoordinates,Original*%
%TF.FileFunction,Legend,Top*%
%TF.FilePolarity,Positive*%
%FSLAX46Y46*%
G04 Gerber Fmt 4.6, Leading zero omitted, Abs format (unit mm)*
G04 Created by KiCad (PCBNEW (6.0.7)) date 2023-08-08 19:22:38*
%MOMM*%
%LPD*%
G01*
G04 APERTURE LIST*
%ADD10C,0.150000*%
%ADD11C,0.200000*%
%ADD12C,0.120000*%
G04 APERTURE END LIST*
D10*
X166000000Y-103750000D02*
X166000000Y-85250000D01*
X145000000Y-85250000D02*
X145000000Y-103750000D01*
X166000000Y-85250000D02*
X145000000Y-85250000D01*
X145000000Y-103750000D02*
X166000000Y-103750000D01*
D11*
X112250000Y-95750000D02*
X126250000Y-95750000D01*
X126250000Y-95750000D02*
X126250000Y-85750000D01*
X126250000Y-85750000D02*
X112250000Y-85750000D01*
X112250000Y-85750000D02*
X112250000Y-95750000D01*
D10*
%TO.C,S1*%
X170988095Y-96154761D02*
X171130952Y-96202380D01*
X171369047Y-96202380D01*
X171464285Y-96154761D01*
X171511904Y-96107142D01*
X171559523Y-96011904D01*
X171559523Y-95916666D01*
X171511904Y-95821428D01*
X171464285Y-95773809D01*
X171369047Y-95726190D01*
X171178571Y-95678571D01*
X171083333Y-95630952D01*
X171035714Y-95583333D01*
X170988095Y-95488095D01*
X170988095Y-95392857D01*
X171035714Y-95297619D01*
X171083333Y-95250000D01*
X171178571Y-95202380D01*
X171416666Y-95202380D01*
X171559523Y-95250000D01*
X172511904Y-96202380D02*
X171940476Y-96202380D01*
X172226190Y-96202380D02*
X172226190Y-95202380D01*
X172130952Y-95345238D01*
X172035714Y-95440476D01*
X171940476Y-95488095D01*
%TO.C,J6*%
X109202380Y-100083333D02*
X109916666Y-100083333D01*
X110059523Y-100130952D01*
X110154761Y-100226190D01*
X110202380Y-100369047D01*
X110202380Y-100464285D01*
X109202380Y-99178571D02*
X109202380Y-99369047D01*
X109250000Y-99464285D01*
X109297619Y-99511904D01*
X109440476Y-99607142D01*
X109630952Y-99654761D01*
X110011904Y-99654761D01*
X110107142Y-99607142D01*
X110154761Y-99559523D01*
X110202380Y-99464285D01*
X110202380Y-99273809D01*
X110154761Y-99178571D01*
X110107142Y-99130952D01*
X110011904Y-99083333D01*
X109773809Y-99083333D01*
X109678571Y-99130952D01*
X109630952Y-99178571D01*
X109583333Y-99273809D01*
X109583333Y-99464285D01*
X109630952Y-99559523D01*
X109678571Y-99607142D01*
X109773809Y-99654761D01*
%TO.C,J4*%
X113702380Y-100083333D02*
X114416666Y-100083333D01*
X114559523Y-100130952D01*
X114654761Y-100226190D01*
X114702380Y-100369047D01*
X114702380Y-100464285D01*
X114035714Y-99178571D02*
X114702380Y-99178571D01*
X113654761Y-99416666D02*
X114369047Y-99654761D01*
X114369047Y-99035714D01*
%TO.C,T2*%
X140488095Y-91952380D02*
X141059523Y-91952380D01*
X140773809Y-92952380D02*
X140773809Y-91952380D01*
X141345238Y-92047619D02*
X141392857Y-92000000D01*
X141488095Y-91952380D01*
X141726190Y-91952380D01*
X141821428Y-92000000D01*
X141869047Y-92047619D01*
X141916666Y-92142857D01*
X141916666Y-92238095D01*
X141869047Y-92380952D01*
X141297619Y-92952380D01*
X141916666Y-92952380D01*
%TO.C,J2*%
X128452380Y-96833333D02*
X129166666Y-96833333D01*
X129309523Y-96880952D01*
X129404761Y-96976190D01*
X129452380Y-97119047D01*
X129452380Y-97214285D01*
X128547619Y-96404761D02*
X128500000Y-96357142D01*
X128452380Y-96261904D01*
X128452380Y-96023809D01*
X128500000Y-95928571D01*
X128547619Y-95880952D01*
X128642857Y-95833333D01*
X128738095Y-95833333D01*
X128880952Y-95880952D01*
X129452380Y-96452380D01*
X129452380Y-95833333D01*
%TO.C,T3*%
X174952380Y-90011904D02*
X174952380Y-89440476D01*
X175952380Y-89726190D02*
X174952380Y-89726190D01*
X174952380Y-89202380D02*
X174952380Y-88583333D01*
X175333333Y-88916666D01*
X175333333Y-88773809D01*
X175380952Y-88678571D01*
X175428571Y-88630952D01*
X175523809Y-88583333D01*
X175761904Y-88583333D01*
X175857142Y-88630952D01*
X175904761Y-88678571D01*
X175952380Y-88773809D01*
X175952380Y-89059523D01*
X175904761Y-89154761D01*
X175857142Y-89202380D01*
%TO.C,J1*%
X127952380Y-90833333D02*
X128666666Y-90833333D01*
X128809523Y-90880952D01*
X128904761Y-90976190D01*
X128952380Y-91119047D01*
X128952380Y-91214285D01*
X128952380Y-89833333D02*
X128952380Y-90404761D01*
X128952380Y-90119047D02*
X127952380Y-90119047D01*
X128095238Y-90214285D01*
X128190476Y-90309523D01*
X128238095Y-90404761D01*
%TO.C,T4*%
X155988095Y-91702380D02*
X156559523Y-91702380D01*
X156273809Y-92702380D02*
X156273809Y-91702380D01*
X157321428Y-92035714D02*
X157321428Y-92702380D01*
X157083333Y-91654761D02*
X156845238Y-92369047D01*
X157464285Y-92369047D01*
%TO.C,J5*%
X111452380Y-100083333D02*
X112166666Y-100083333D01*
X112309523Y-100130952D01*
X112404761Y-100226190D01*
X112452380Y-100369047D01*
X112452380Y-100464285D01*
X111452380Y-99130952D02*
X111452380Y-99607142D01*
X111928571Y-99654761D01*
X111880952Y-99607142D01*
X111833333Y-99511904D01*
X111833333Y-99273809D01*
X111880952Y-99178571D01*
X111928571Y-99130952D01*
X112023809Y-99083333D01*
X112261904Y-99083333D01*
X112357142Y-99130952D01*
X112404761Y-99178571D01*
X112452380Y-99273809D01*
X112452380Y-99511904D01*
X112404761Y-99607142D01*
X112357142Y-99654761D01*
%TO.C,T1*%
X140488095Y-95952380D02*
X141059523Y-95952380D01*
X140773809Y-96952380D02*
X140773809Y-95952380D01*
X141916666Y-96952380D02*
X141345238Y-96952380D01*
X141630952Y-96952380D02*
X141630952Y-95952380D01*
X141535714Y-96095238D01*
X141440476Y-96190476D01*
X141345238Y-96238095D01*
D12*
%TO.C,J6*%
X99670000Y-85510000D02*
X101000000Y-85510000D01*
X99670000Y-88110000D02*
X102330000Y-88110000D01*
X99670000Y-86840000D02*
X99670000Y-85510000D01*
X99670000Y-103410000D02*
X102330000Y-103410000D01*
X99670000Y-88110000D02*
X99670000Y-103410000D01*
X102330000Y-88110000D02*
X102330000Y-103410000D01*
%TO.C,J4*%
X105170000Y-86840000D02*
X105170000Y-85510000D01*
X105170000Y-103410000D02*
X107830000Y-103410000D01*
X105170000Y-85510000D02*
X106500000Y-85510000D01*
X105170000Y-88110000D02*
X105170000Y-103410000D01*
X105170000Y-88110000D02*
X107830000Y-88110000D01*
X107830000Y-88110000D02*
X107830000Y-103410000D01*
%TO.C,J2*%
X130170000Y-90670000D02*
X132830000Y-90670000D01*
X130170000Y-89400000D02*
X130170000Y-88070000D01*
X132830000Y-90670000D02*
X132830000Y-103430000D01*
X130170000Y-90670000D02*
X130170000Y-103430000D01*
X130170000Y-103430000D02*
X132830000Y-103430000D01*
X130170000Y-88070000D02*
X131500000Y-88070000D01*
%TO.C,J1*%
X125190000Y-88750000D02*
X127310000Y-88750000D01*
X125190000Y-88750000D02*
X125190000Y-94810000D01*
X125190000Y-94810000D02*
X127310000Y-94810000D01*
X125190000Y-87750000D02*
X125190000Y-86690000D01*
X127310000Y-88750000D02*
X127310000Y-94810000D01*
X125190000Y-86690000D02*
X126250000Y-86690000D01*
%TO.C,J5*%
X102420000Y-88110000D02*
X102420000Y-103410000D01*
X105080000Y-88110000D02*
X105080000Y-103410000D01*
X102420000Y-88110000D02*
X105080000Y-88110000D01*
X102420000Y-86840000D02*
X102420000Y-85510000D01*
X102420000Y-85510000D02*
X103750000Y-85510000D01*
X102420000Y-103410000D02*
X105080000Y-103410000D01*
%TD*%
M02*
