%TF.GenerationSoftware,KiCad,Pcbnew,(6.0.7)*%
%TF.CreationDate,2023-08-08T19:22:38-05:00*%
%TF.ProjectId,PowerDistrubutionBoard,506f7765-7244-4697-9374-727562757469,rev?*%
%TF.SameCoordinates,Original*%
%TF.FileFunction,Copper,L2,Bot*%
%TF.FilePolarity,Positive*%
%FSLAX46Y46*%
G04 Gerber Fmt 4.6, Leading zero omitted, Abs format (unit mm)*
G04 Created by KiCad (PCBNEW (6.0.7)) date 2023-08-08 19:22:38*
%MOMM*%
%LPD*%
G01*
G04 APERTURE LIST*
%TA.AperFunction,WasherPad*%
%ADD10C,3.600000*%
%TD*%
%TA.AperFunction,ConnectorPad*%
%ADD11C,6.000000*%
%TD*%
%TA.AperFunction,ComponentPad*%
%ADD12R,1.700000X1.700000*%
%TD*%
%TA.AperFunction,ComponentPad*%
%ADD13O,1.700000X1.700000*%
%TD*%
%TA.AperFunction,ComponentPad*%
%ADD14C,3.600000*%
%TD*%
%TA.AperFunction,ComponentPad*%
%ADD15R,1.350000X1.350000*%
%TD*%
%TA.AperFunction,ComponentPad*%
%ADD16O,1.350000X1.350000*%
%TD*%
%TA.AperFunction,Conductor*%
%ADD17C,0.250000*%
%TD*%
G04 APERTURE END LIST*
D10*
%TO.P,S1,*%
%TO.N,*%
X171750000Y-99750000D03*
D11*
%TO.P,S1,2,2*%
%TO.N,Net-(J1-Pad1)*%
X171750000Y-99750000D03*
%TD*%
D12*
%TO.P,J6,1,Pin_1*%
%TO.N,unconnected-(J6-Pad1)*%
X101000000Y-86840000D03*
D13*
%TO.P,J6,2,Pin_2*%
%TO.N,Net-(J2-Pad1)*%
X101000000Y-89380000D03*
%TO.P,J6,3,Pin_3*%
%TO.N,Net-(J2-Pad2)*%
X101000000Y-91920000D03*
%TO.P,J6,4,Pin_4*%
%TO.N,Net-(J2-Pad3)*%
X101000000Y-94460000D03*
%TO.P,J6,5,Pin_5*%
%TO.N,Net-(J2-Pad4)*%
X101000000Y-97000000D03*
%TO.P,J6,6,Pin_6*%
%TO.N,Net-(J2-Pad5)*%
X101000000Y-99540000D03*
%TO.P,J6,7,Pin_7*%
%TO.N,Net-(J2-Pad6)*%
X101000000Y-102080000D03*
%TD*%
D12*
%TO.P,J4,1,Pin_1*%
%TO.N,Net-(J1-Pad3)*%
X106500000Y-86840000D03*
D13*
%TO.P,J4,2,Pin_2*%
%TO.N,unconnected-(J4-Pad2)*%
X106500000Y-89380000D03*
%TO.P,J4,3,Pin_3*%
%TO.N,unconnected-(J4-Pad3)*%
X106500000Y-91920000D03*
%TO.P,J4,4,Pin_4*%
%TO.N,unconnected-(J4-Pad4)*%
X106500000Y-94460000D03*
%TO.P,J4,5,Pin_5*%
%TO.N,unconnected-(J4-Pad5)*%
X106500000Y-97000000D03*
%TO.P,J4,6,Pin_6*%
%TO.N,unconnected-(J4-Pad6)*%
X106500000Y-99540000D03*
%TO.P,J4,7,Pin_7*%
%TO.N,unconnected-(J4-Pad7)*%
X106500000Y-102080000D03*
%TD*%
D14*
%TO.P,T2,1,+*%
%TO.N,Net-(J1-Pad1)*%
X137000000Y-88750000D03*
%TO.P,T2,2,-*%
%TO.N,Net-(J1-Pad2)*%
X141500000Y-88750000D03*
%TD*%
D12*
%TO.P,J2,1,Pin_1*%
%TO.N,Net-(J2-Pad1)*%
X131500000Y-89400000D03*
D13*
%TO.P,J2,2,Pin_2*%
%TO.N,Net-(J2-Pad2)*%
X131500000Y-91940000D03*
%TO.P,J2,3,Pin_3*%
%TO.N,Net-(J2-Pad3)*%
X131500000Y-94480000D03*
%TO.P,J2,4,Pin_4*%
%TO.N,Net-(J2-Pad4)*%
X131500000Y-97020000D03*
%TO.P,J2,5,Pin_5*%
%TO.N,Net-(J2-Pad5)*%
X131500000Y-99560000D03*
%TO.P,J2,6,Pin_6*%
%TO.N,Net-(J2-Pad6)*%
X131500000Y-102100000D03*
%TD*%
D14*
%TO.P,T3,1,+*%
%TO.N,Net-(T3-Pad1)*%
X171780000Y-93000000D03*
%TO.P,T3,2,-*%
%TO.N,Net-(J1-Pad2)*%
X171780000Y-88500000D03*
%TD*%
D15*
%TO.P,J1,1,Pin_1*%
%TO.N,Net-(J1-Pad1)*%
X126250000Y-87750000D03*
D16*
%TO.P,J1,2,Pin_2*%
%TO.N,Net-(J1-Pad2)*%
X126250000Y-89750000D03*
%TO.P,J1,3,Pin_3*%
%TO.N,Net-(J1-Pad3)*%
X126250000Y-91750000D03*
%TO.P,J1,4,Pin_4*%
%TO.N,Net-(J1-Pad4)*%
X126250000Y-93750000D03*
%TD*%
D14*
%TO.P,T4,1,+*%
%TO.N,Net-(J1-Pad1)*%
X153500000Y-88530000D03*
%TO.P,T4,2,-*%
%TO.N,Net-(J1-Pad2)*%
X158000000Y-88530000D03*
%TD*%
D12*
%TO.P,J5,1,Pin_1*%
%TO.N,Net-(J1-Pad4)*%
X103750000Y-86840000D03*
D13*
%TO.P,J5,2,Pin_2*%
%TO.N,unconnected-(J5-Pad2)*%
X103750000Y-89380000D03*
%TO.P,J5,3,Pin_3*%
%TO.N,unconnected-(J5-Pad3)*%
X103750000Y-91920000D03*
%TO.P,J5,4,Pin_4*%
%TO.N,unconnected-(J5-Pad4)*%
X103750000Y-94460000D03*
%TO.P,J5,5,Pin_5*%
%TO.N,unconnected-(J5-Pad5)*%
X103750000Y-97000000D03*
%TO.P,J5,6,Pin_6*%
%TO.N,unconnected-(J5-Pad6)*%
X103750000Y-99540000D03*
%TO.P,J5,7,Pin_7*%
%TO.N,unconnected-(J5-Pad7)*%
X103750000Y-102080000D03*
%TD*%
D14*
%TO.P,T1,1,+*%
%TO.N,Net-(J1-Pad1)*%
X137000000Y-100000000D03*
%TO.P,T1,2,-*%
%TO.N,Net-(J1-Pad2)*%
X141500000Y-100000000D03*
%TD*%
D17*
%TO.N,Net-(J1-Pad1)*%
X136000000Y-87750000D02*
X126250000Y-87750000D01*
X137000000Y-88750000D02*
X136000000Y-87750000D01*
%TD*%
%TA.AperFunction,Conductor*%
%TO.N,Net-(J1-Pad1)*%
G36*
X167942121Y-85728502D02*
G01*
X167988614Y-85782158D01*
X168000000Y-85834500D01*
X168000000Y-96000000D01*
X175624000Y-96000000D01*
X175692121Y-96020002D01*
X175738614Y-96073658D01*
X175750000Y-96126000D01*
X175750000Y-103065500D01*
X175729998Y-103133621D01*
X175676342Y-103180114D01*
X175624000Y-103191500D01*
X133876000Y-103191500D01*
X133807879Y-103171498D01*
X133761386Y-103117842D01*
X133750000Y-103065500D01*
X133750000Y-101804286D01*
X135561171Y-101804286D01*
X135567628Y-101813646D01*
X135588864Y-101832270D01*
X135595395Y-101837281D01*
X135840091Y-102000781D01*
X135847228Y-102004902D01*
X136111174Y-102135065D01*
X136118778Y-102138215D01*
X136397457Y-102232814D01*
X136405409Y-102234945D01*
X136694056Y-102292360D01*
X136702214Y-102293434D01*
X136995881Y-102312682D01*
X137004119Y-102312682D01*
X137297786Y-102293434D01*
X137305944Y-102292360D01*
X137594591Y-102234945D01*
X137602543Y-102232814D01*
X137881222Y-102138215D01*
X137888826Y-102135065D01*
X138152772Y-102004902D01*
X138159909Y-102000781D01*
X138404605Y-101837281D01*
X138411136Y-101832270D01*
X138430507Y-101815281D01*
X138438903Y-101802044D01*
X138433069Y-101792279D01*
X137012812Y-100372022D01*
X136998868Y-100364408D01*
X136997035Y-100364539D01*
X136990420Y-100368790D01*
X135568685Y-101790525D01*
X135561171Y-101804286D01*
X133750000Y-101804286D01*
X133750000Y-100004119D01*
X134687318Y-100004119D01*
X134706566Y-100297786D01*
X134707640Y-100305944D01*
X134765055Y-100594591D01*
X134767186Y-100602543D01*
X134861785Y-100881222D01*
X134864935Y-100888826D01*
X134995098Y-101152772D01*
X134999219Y-101159909D01*
X135162719Y-101404605D01*
X135167730Y-101411136D01*
X135184719Y-101430507D01*
X135197956Y-101438903D01*
X135207721Y-101433069D01*
X136627978Y-100012812D01*
X136634356Y-100001132D01*
X137364408Y-100001132D01*
X137364539Y-100002965D01*
X137368790Y-100009580D01*
X138790525Y-101431315D01*
X138804286Y-101438829D01*
X138813646Y-101432372D01*
X138832270Y-101411136D01*
X138837281Y-101404605D01*
X139000781Y-101159909D01*
X139004902Y-101152772D01*
X139136715Y-100885481D01*
X139184783Y-100833232D01*
X139253469Y-100815265D01*
X139320965Y-100837284D01*
X139362727Y-100885480D01*
X139496491Y-101156726D01*
X139664614Y-101408341D01*
X139667328Y-101411435D01*
X139667332Y-101411441D01*
X139691351Y-101438829D01*
X139864142Y-101635858D01*
X139867231Y-101638567D01*
X140088559Y-101832668D01*
X140088565Y-101832672D01*
X140091659Y-101835386D01*
X140095085Y-101837675D01*
X140095090Y-101837679D01*
X140171416Y-101888678D01*
X140343273Y-102003509D01*
X140346972Y-102005333D01*
X140346977Y-102005336D01*
X140486308Y-102074046D01*
X140614680Y-102137352D01*
X140618585Y-102138677D01*
X140618586Y-102138678D01*
X140897327Y-102233298D01*
X140897330Y-102233299D01*
X140901234Y-102234624D01*
X140905273Y-102235427D01*
X140905279Y-102235429D01*
X141193991Y-102292857D01*
X141193994Y-102292857D01*
X141198034Y-102293661D01*
X141202145Y-102293930D01*
X141202149Y-102293931D01*
X141495881Y-102313183D01*
X141500000Y-102313453D01*
X141504119Y-102313183D01*
X141797851Y-102293931D01*
X141797855Y-102293930D01*
X141801966Y-102293661D01*
X141806006Y-102292857D01*
X141806009Y-102292857D01*
X142094721Y-102235429D01*
X142094727Y-102235427D01*
X142098766Y-102234624D01*
X142102670Y-102233299D01*
X142102673Y-102233298D01*
X142381414Y-102138678D01*
X142381415Y-102138677D01*
X142385320Y-102137352D01*
X142513692Y-102074046D01*
X142653023Y-102005336D01*
X142653028Y-102005333D01*
X142656727Y-102003509D01*
X142828584Y-101888678D01*
X142904910Y-101837679D01*
X142904915Y-101837675D01*
X142908341Y-101835386D01*
X142911435Y-101832672D01*
X142911441Y-101832668D01*
X143132769Y-101638567D01*
X143135858Y-101635858D01*
X143308649Y-101438829D01*
X143332668Y-101411441D01*
X143332672Y-101411435D01*
X143335386Y-101408341D01*
X143503509Y-101156726D01*
X143637352Y-100885320D01*
X143653658Y-100837284D01*
X143733298Y-100602673D01*
X143733299Y-100602670D01*
X143734624Y-100598766D01*
X143735455Y-100594591D01*
X143792857Y-100306009D01*
X143792857Y-100306006D01*
X143793661Y-100301966D01*
X143813453Y-100000000D01*
X143797067Y-99750000D01*
X169436547Y-99750000D01*
X169436817Y-99754119D01*
X169453773Y-100012812D01*
X169456339Y-100051966D01*
X169515376Y-100348766D01*
X169516701Y-100352670D01*
X169516702Y-100352673D01*
X169601522Y-100602543D01*
X169612648Y-100635320D01*
X169614472Y-100639018D01*
X169737664Y-100888826D01*
X169746491Y-100906726D01*
X169914614Y-101158341D01*
X169917328Y-101161435D01*
X169917332Y-101161441D01*
X170111433Y-101382769D01*
X170114142Y-101385858D01*
X170117231Y-101388567D01*
X170338559Y-101582668D01*
X170338565Y-101582672D01*
X170341659Y-101585386D01*
X170345085Y-101587675D01*
X170345090Y-101587679D01*
X170421250Y-101638567D01*
X170593273Y-101753509D01*
X170596972Y-101755333D01*
X170596977Y-101755336D01*
X170715219Y-101813646D01*
X170864680Y-101887352D01*
X170868585Y-101888677D01*
X170868586Y-101888678D01*
X171147327Y-101983298D01*
X171147330Y-101983299D01*
X171151234Y-101984624D01*
X171155273Y-101985427D01*
X171155279Y-101985429D01*
X171443991Y-102042857D01*
X171443994Y-102042857D01*
X171448034Y-102043661D01*
X171452145Y-102043930D01*
X171452149Y-102043931D01*
X171745881Y-102063183D01*
X171750000Y-102063453D01*
X171754119Y-102063183D01*
X172047851Y-102043931D01*
X172047855Y-102043930D01*
X172051966Y-102043661D01*
X172056006Y-102042857D01*
X172056009Y-102042857D01*
X172344721Y-101985429D01*
X172344727Y-101985427D01*
X172348766Y-101984624D01*
X172352670Y-101983299D01*
X172352673Y-101983298D01*
X172631414Y-101888678D01*
X172631415Y-101888677D01*
X172635320Y-101887352D01*
X172784781Y-101813646D01*
X172903023Y-101755336D01*
X172903028Y-101755333D01*
X172906727Y-101753509D01*
X173078750Y-101638567D01*
X173154910Y-101587679D01*
X173154915Y-101587675D01*
X173158341Y-101585386D01*
X173161435Y-101582672D01*
X173161441Y-101582668D01*
X173382769Y-101388567D01*
X173385858Y-101385858D01*
X173388567Y-101382769D01*
X173582668Y-101161441D01*
X173582672Y-101161435D01*
X173585386Y-101158341D01*
X173753509Y-100906726D01*
X173762337Y-100888826D01*
X173885528Y-100639018D01*
X173887352Y-100635320D01*
X173898478Y-100602543D01*
X173983298Y-100352673D01*
X173983299Y-100352670D01*
X173984624Y-100348766D01*
X174043661Y-100051966D01*
X174046228Y-100012812D01*
X174063183Y-99754119D01*
X174063453Y-99750000D01*
X174043661Y-99448034D01*
X174042857Y-99443991D01*
X173985429Y-99155279D01*
X173985427Y-99155273D01*
X173984624Y-99151234D01*
X173973542Y-99118586D01*
X173888678Y-98868586D01*
X173888677Y-98868585D01*
X173887352Y-98864680D01*
X173753509Y-98593274D01*
X173585386Y-98341659D01*
X173582672Y-98338565D01*
X173582668Y-98338559D01*
X173388567Y-98117231D01*
X173385858Y-98114142D01*
X173254814Y-97999219D01*
X173161441Y-97917332D01*
X173161435Y-97917328D01*
X173158341Y-97914614D01*
X173154911Y-97912322D01*
X173154910Y-97912321D01*
X172910160Y-97748785D01*
X172906727Y-97746491D01*
X172903028Y-97744667D01*
X172903023Y-97744664D01*
X172763692Y-97675954D01*
X172635320Y-97612648D01*
X172631414Y-97611322D01*
X172352673Y-97516702D01*
X172352670Y-97516701D01*
X172348766Y-97515376D01*
X172344727Y-97514573D01*
X172344721Y-97514571D01*
X172056009Y-97457143D01*
X172056006Y-97457143D01*
X172051966Y-97456339D01*
X172047855Y-97456070D01*
X172047851Y-97456069D01*
X171754119Y-97436817D01*
X171750000Y-97436547D01*
X171745881Y-97436817D01*
X171452149Y-97456069D01*
X171452145Y-97456070D01*
X171448034Y-97456339D01*
X171443994Y-97457143D01*
X171443991Y-97457143D01*
X171155279Y-97514571D01*
X171155273Y-97514573D01*
X171151234Y-97515376D01*
X171147330Y-97516701D01*
X171147327Y-97516702D01*
X170868586Y-97611322D01*
X170864680Y-97612648D01*
X170736442Y-97675888D01*
X170596978Y-97744664D01*
X170596973Y-97744667D01*
X170593274Y-97746491D01*
X170341659Y-97914614D01*
X170338565Y-97917328D01*
X170338559Y-97917332D01*
X170245186Y-97999219D01*
X170114142Y-98114142D01*
X170111433Y-98117231D01*
X169917332Y-98338559D01*
X169917328Y-98338565D01*
X169914614Y-98341659D01*
X169746491Y-98593274D01*
X169612648Y-98864680D01*
X169611323Y-98868585D01*
X169611322Y-98868586D01*
X169526459Y-99118586D01*
X169515376Y-99151234D01*
X169514573Y-99155273D01*
X169514571Y-99155279D01*
X169457143Y-99443991D01*
X169456339Y-99448034D01*
X169436547Y-99750000D01*
X143797067Y-99750000D01*
X143793661Y-99698034D01*
X143781241Y-99635592D01*
X143735429Y-99405279D01*
X143735427Y-99405273D01*
X143734624Y-99401234D01*
X143661133Y-99184735D01*
X143638678Y-99118586D01*
X143638677Y-99118585D01*
X143637352Y-99114680D01*
X143515992Y-98868586D01*
X143505336Y-98846978D01*
X143505333Y-98846972D01*
X143503509Y-98843274D01*
X143335386Y-98591659D01*
X143332672Y-98588565D01*
X143332668Y-98588559D01*
X143138567Y-98367231D01*
X143135858Y-98364142D01*
X143132769Y-98361433D01*
X142911441Y-98167332D01*
X142911435Y-98167328D01*
X142908341Y-98164614D01*
X142904911Y-98162322D01*
X142904910Y-98162321D01*
X142660160Y-97998785D01*
X142656727Y-97996491D01*
X142653028Y-97994667D01*
X142653023Y-97994664D01*
X142486047Y-97912321D01*
X142385320Y-97862648D01*
X142381414Y-97861322D01*
X142102673Y-97766702D01*
X142102670Y-97766701D01*
X142098766Y-97765376D01*
X142094727Y-97764573D01*
X142094721Y-97764571D01*
X141806009Y-97707143D01*
X141806006Y-97707143D01*
X141801966Y-97706339D01*
X141797855Y-97706070D01*
X141797851Y-97706069D01*
X141504119Y-97686817D01*
X141500000Y-97686547D01*
X141495881Y-97686817D01*
X141202149Y-97706069D01*
X141202145Y-97706070D01*
X141198034Y-97706339D01*
X141193994Y-97707143D01*
X141193991Y-97707143D01*
X140905279Y-97764571D01*
X140905273Y-97764573D01*
X140901234Y-97765376D01*
X140897330Y-97766701D01*
X140897327Y-97766702D01*
X140618586Y-97861322D01*
X140614680Y-97862648D01*
X140509304Y-97914614D01*
X140346978Y-97994664D01*
X140346973Y-97994667D01*
X140343274Y-97996491D01*
X140091659Y-98164614D01*
X140088565Y-98167328D01*
X140088559Y-98167332D01*
X139867231Y-98361433D01*
X139864142Y-98364142D01*
X139861433Y-98367231D01*
X139667332Y-98588559D01*
X139667328Y-98588565D01*
X139664614Y-98591659D01*
X139496491Y-98843274D01*
X139364472Y-99110982D01*
X139362727Y-99114520D01*
X139314658Y-99166768D01*
X139245973Y-99184735D01*
X139178477Y-99162716D01*
X139136715Y-99114519D01*
X139004902Y-98847228D01*
X139000781Y-98840091D01*
X138837281Y-98595395D01*
X138832270Y-98588864D01*
X138815281Y-98569493D01*
X138802044Y-98561097D01*
X138792279Y-98566931D01*
X137372022Y-99987188D01*
X137364408Y-100001132D01*
X136634356Y-100001132D01*
X136635592Y-99998868D01*
X136635461Y-99997035D01*
X136631210Y-99990420D01*
X135209475Y-98568685D01*
X135195714Y-98561171D01*
X135186354Y-98567628D01*
X135167730Y-98588864D01*
X135162719Y-98595395D01*
X134999219Y-98840091D01*
X134995098Y-98847228D01*
X134864935Y-99111174D01*
X134861785Y-99118778D01*
X134767186Y-99397457D01*
X134765055Y-99405409D01*
X134707640Y-99694056D01*
X134706566Y-99702214D01*
X134687318Y-99995881D01*
X134687318Y-100004119D01*
X133750000Y-100004119D01*
X133750000Y-98197956D01*
X135561097Y-98197956D01*
X135566931Y-98207721D01*
X136987188Y-99627978D01*
X137001132Y-99635592D01*
X137002965Y-99635461D01*
X137009580Y-99631210D01*
X138431315Y-98209475D01*
X138438829Y-98195714D01*
X138432372Y-98186354D01*
X138411136Y-98167730D01*
X138404605Y-98162719D01*
X138159909Y-97999219D01*
X138152772Y-97995098D01*
X137888826Y-97864935D01*
X137881222Y-97861785D01*
X137602543Y-97767186D01*
X137594591Y-97765055D01*
X137305944Y-97707640D01*
X137297786Y-97706566D01*
X137004119Y-97687318D01*
X136995881Y-97687318D01*
X136702214Y-97706566D01*
X136694056Y-97707640D01*
X136405409Y-97765055D01*
X136397457Y-97767186D01*
X136118778Y-97861785D01*
X136111174Y-97864935D01*
X135847228Y-97995098D01*
X135840091Y-97999219D01*
X135595395Y-98162719D01*
X135588864Y-98167730D01*
X135569493Y-98184719D01*
X135561097Y-98197956D01*
X133750000Y-98197956D01*
X133750000Y-90554286D01*
X135561171Y-90554286D01*
X135567628Y-90563646D01*
X135588864Y-90582270D01*
X135595395Y-90587281D01*
X135840091Y-90750781D01*
X135847228Y-90754902D01*
X136111174Y-90885065D01*
X136118778Y-90888215D01*
X136397457Y-90982814D01*
X136405409Y-90984945D01*
X136694056Y-91042360D01*
X136702214Y-91043434D01*
X136995881Y-91062682D01*
X137004119Y-91062682D01*
X137297786Y-91043434D01*
X137305944Y-91042360D01*
X137594591Y-90984945D01*
X137602543Y-90982814D01*
X137881222Y-90888215D01*
X137888826Y-90885065D01*
X138152772Y-90754902D01*
X138159909Y-90750781D01*
X138404605Y-90587281D01*
X138411136Y-90582270D01*
X138430507Y-90565281D01*
X138438903Y-90552044D01*
X138433069Y-90542279D01*
X137012812Y-89122022D01*
X136998868Y-89114408D01*
X136997035Y-89114539D01*
X136990420Y-89118790D01*
X135568685Y-90540525D01*
X135561171Y-90554286D01*
X133750000Y-90554286D01*
X133750000Y-88754119D01*
X134687318Y-88754119D01*
X134706566Y-89047786D01*
X134707640Y-89055944D01*
X134765055Y-89344591D01*
X134767186Y-89352543D01*
X134861785Y-89631222D01*
X134864935Y-89638826D01*
X134995098Y-89902772D01*
X134999219Y-89909909D01*
X135162719Y-90154605D01*
X135167730Y-90161136D01*
X135184719Y-90180507D01*
X135197956Y-90188903D01*
X135207721Y-90183069D01*
X136627978Y-88762812D01*
X136634356Y-88751132D01*
X137364408Y-88751132D01*
X137364539Y-88752965D01*
X137368790Y-88759580D01*
X138790525Y-90181315D01*
X138804286Y-90188829D01*
X138813646Y-90182372D01*
X138832270Y-90161136D01*
X138837281Y-90154605D01*
X139000781Y-89909909D01*
X139004902Y-89902772D01*
X139136715Y-89635481D01*
X139184783Y-89583232D01*
X139253469Y-89565265D01*
X139320965Y-89587284D01*
X139362727Y-89635480D01*
X139496491Y-89906726D01*
X139664614Y-90158341D01*
X139667328Y-90161435D01*
X139667332Y-90161441D01*
X139691351Y-90188829D01*
X139864142Y-90385858D01*
X139867231Y-90388567D01*
X140088559Y-90582668D01*
X140088565Y-90582672D01*
X140091659Y-90585386D01*
X140095085Y-90587675D01*
X140095090Y-90587679D01*
X140210907Y-90665065D01*
X140343273Y-90753509D01*
X140346972Y-90755333D01*
X140346977Y-90755336D01*
X140367444Y-90765429D01*
X140614680Y-90887352D01*
X140618585Y-90888677D01*
X140618586Y-90888678D01*
X140897327Y-90983298D01*
X140897330Y-90983299D01*
X140901234Y-90984624D01*
X140905273Y-90985427D01*
X140905279Y-90985429D01*
X141193991Y-91042857D01*
X141193994Y-91042857D01*
X141198034Y-91043661D01*
X141202145Y-91043930D01*
X141202149Y-91043931D01*
X141495881Y-91063183D01*
X141500000Y-91063453D01*
X141504119Y-91063183D01*
X141797851Y-91043931D01*
X141797855Y-91043930D01*
X141801966Y-91043661D01*
X141806006Y-91042857D01*
X141806009Y-91042857D01*
X142094721Y-90985429D01*
X142094727Y-90985427D01*
X142098766Y-90984624D01*
X142102670Y-90983299D01*
X142102673Y-90983298D01*
X142381414Y-90888678D01*
X142381415Y-90888677D01*
X142385320Y-90887352D01*
X142632556Y-90765429D01*
X142653023Y-90755336D01*
X142653028Y-90755333D01*
X142656727Y-90753509D01*
X142789093Y-90665065D01*
X142904910Y-90587679D01*
X142904915Y-90587675D01*
X142908341Y-90585386D01*
X142911435Y-90582672D01*
X142911441Y-90582668D01*
X143132769Y-90388567D01*
X143135858Y-90385858D01*
X143181086Y-90334286D01*
X152061171Y-90334286D01*
X152067628Y-90343646D01*
X152088864Y-90362270D01*
X152095395Y-90367281D01*
X152340091Y-90530781D01*
X152347228Y-90534902D01*
X152611174Y-90665065D01*
X152618778Y-90668215D01*
X152897457Y-90762814D01*
X152905409Y-90764945D01*
X153194056Y-90822360D01*
X153202214Y-90823434D01*
X153495881Y-90842682D01*
X153504119Y-90842682D01*
X153797786Y-90823434D01*
X153805944Y-90822360D01*
X154094591Y-90764945D01*
X154102543Y-90762814D01*
X154381222Y-90668215D01*
X154388826Y-90665065D01*
X154652772Y-90534902D01*
X154659909Y-90530781D01*
X154904605Y-90367281D01*
X154911136Y-90362270D01*
X154930507Y-90345281D01*
X154938903Y-90332044D01*
X154933069Y-90322279D01*
X153512812Y-88902022D01*
X153498868Y-88894408D01*
X153497035Y-88894539D01*
X153490420Y-88898790D01*
X152068685Y-90320525D01*
X152061171Y-90334286D01*
X143181086Y-90334286D01*
X143308649Y-90188829D01*
X143332668Y-90161441D01*
X143332672Y-90161435D01*
X143335386Y-90158341D01*
X143503509Y-89906726D01*
X143637352Y-89635320D01*
X143653658Y-89587284D01*
X143733298Y-89352673D01*
X143733299Y-89352670D01*
X143734624Y-89348766D01*
X143735455Y-89344591D01*
X143792857Y-89056009D01*
X143792857Y-89056006D01*
X143793661Y-89051966D01*
X143813453Y-88750000D01*
X143799661Y-88539580D01*
X143799303Y-88534119D01*
X151187318Y-88534119D01*
X151206566Y-88827786D01*
X151207640Y-88835944D01*
X151265055Y-89124591D01*
X151267186Y-89132543D01*
X151361785Y-89411222D01*
X151364935Y-89418826D01*
X151495098Y-89682772D01*
X151499219Y-89689909D01*
X151662719Y-89934605D01*
X151667730Y-89941136D01*
X151684719Y-89960507D01*
X151697956Y-89968903D01*
X151707721Y-89963069D01*
X153127978Y-88542812D01*
X153134356Y-88531132D01*
X153864408Y-88531132D01*
X153864539Y-88532965D01*
X153868790Y-88539580D01*
X155290525Y-89961315D01*
X155304286Y-89968829D01*
X155313646Y-89962372D01*
X155332270Y-89941136D01*
X155337281Y-89934605D01*
X155500781Y-89689909D01*
X155504902Y-89682772D01*
X155636715Y-89415481D01*
X155684783Y-89363232D01*
X155753469Y-89345265D01*
X155820965Y-89367284D01*
X155862727Y-89415480D01*
X155996491Y-89686726D01*
X156164614Y-89938341D01*
X156167328Y-89941435D01*
X156167332Y-89941441D01*
X156354273Y-90154605D01*
X156364142Y-90165858D01*
X156367231Y-90168567D01*
X156588559Y-90362668D01*
X156588565Y-90362672D01*
X156591659Y-90365386D01*
X156595085Y-90367675D01*
X156595090Y-90367679D01*
X156783371Y-90493484D01*
X156843273Y-90533509D01*
X156846972Y-90535333D01*
X156846977Y-90535336D01*
X156948469Y-90585386D01*
X157114680Y-90667352D01*
X157118585Y-90668677D01*
X157118586Y-90668678D01*
X157397327Y-90763298D01*
X157397330Y-90763299D01*
X157401234Y-90764624D01*
X157405273Y-90765427D01*
X157405279Y-90765429D01*
X157693991Y-90822857D01*
X157693994Y-90822857D01*
X157698034Y-90823661D01*
X157702145Y-90823930D01*
X157702149Y-90823931D01*
X157995881Y-90843183D01*
X158000000Y-90843453D01*
X158004119Y-90843183D01*
X158297851Y-90823931D01*
X158297855Y-90823930D01*
X158301966Y-90823661D01*
X158306006Y-90822857D01*
X158306009Y-90822857D01*
X158594721Y-90765429D01*
X158594727Y-90765427D01*
X158598766Y-90764624D01*
X158602670Y-90763299D01*
X158602673Y-90763298D01*
X158881414Y-90668678D01*
X158881415Y-90668677D01*
X158885320Y-90667352D01*
X159051531Y-90585386D01*
X159153023Y-90535336D01*
X159153028Y-90535333D01*
X159156727Y-90533509D01*
X159216629Y-90493484D01*
X159404910Y-90367679D01*
X159404915Y-90367675D01*
X159408341Y-90365386D01*
X159411435Y-90362672D01*
X159411441Y-90362668D01*
X159632769Y-90168567D01*
X159635858Y-90165858D01*
X159645727Y-90154605D01*
X159832668Y-89941441D01*
X159832672Y-89941435D01*
X159835386Y-89938341D01*
X160003509Y-89686726D01*
X160018304Y-89656726D01*
X160135528Y-89419018D01*
X160137352Y-89415320D01*
X160153658Y-89367284D01*
X160233298Y-89132673D01*
X160233299Y-89132670D01*
X160234624Y-89128766D01*
X160235455Y-89124591D01*
X160292857Y-88836009D01*
X160292857Y-88836006D01*
X160293661Y-88831966D01*
X160295628Y-88801966D01*
X160313183Y-88534119D01*
X160313453Y-88530000D01*
X160293661Y-88228034D01*
X160281241Y-88165592D01*
X160235429Y-87935279D01*
X160235427Y-87935273D01*
X160234624Y-87931234D01*
X160229714Y-87916768D01*
X160138678Y-87648586D01*
X160138677Y-87648585D01*
X160137352Y-87644680D01*
X160003509Y-87373274D01*
X159835386Y-87121659D01*
X159832672Y-87118565D01*
X159832668Y-87118559D01*
X159638567Y-86897231D01*
X159635858Y-86894142D01*
X159470111Y-86748785D01*
X159411441Y-86697332D01*
X159411435Y-86697328D01*
X159408341Y-86694614D01*
X159404911Y-86692322D01*
X159404910Y-86692321D01*
X159160160Y-86528785D01*
X159156727Y-86526491D01*
X159153028Y-86524667D01*
X159153023Y-86524664D01*
X158974338Y-86436547D01*
X158885320Y-86392648D01*
X158796943Y-86362648D01*
X158602673Y-86296702D01*
X158602670Y-86296701D01*
X158598766Y-86295376D01*
X158594727Y-86294573D01*
X158594721Y-86294571D01*
X158306009Y-86237143D01*
X158306006Y-86237143D01*
X158301966Y-86236339D01*
X158297855Y-86236070D01*
X158297851Y-86236069D01*
X158004119Y-86216817D01*
X158000000Y-86216547D01*
X157995881Y-86216817D01*
X157702149Y-86236069D01*
X157702145Y-86236070D01*
X157698034Y-86236339D01*
X157693994Y-86237143D01*
X157693991Y-86237143D01*
X157405279Y-86294571D01*
X157405273Y-86294573D01*
X157401234Y-86295376D01*
X157397330Y-86296701D01*
X157397327Y-86296702D01*
X157203057Y-86362648D01*
X157114680Y-86392648D01*
X156986442Y-86455888D01*
X156846978Y-86524664D01*
X156846973Y-86524667D01*
X156843274Y-86526491D01*
X156591659Y-86694614D01*
X156588565Y-86697328D01*
X156588559Y-86697332D01*
X156529889Y-86748785D01*
X156364142Y-86894142D01*
X156361433Y-86897231D01*
X156167332Y-87118559D01*
X156167328Y-87118565D01*
X156164614Y-87121659D01*
X155996491Y-87373274D01*
X155864472Y-87640982D01*
X155862727Y-87644520D01*
X155814658Y-87696768D01*
X155745973Y-87714735D01*
X155678477Y-87692716D01*
X155636715Y-87644519D01*
X155504902Y-87377228D01*
X155500781Y-87370091D01*
X155337281Y-87125395D01*
X155332270Y-87118864D01*
X155315281Y-87099493D01*
X155302044Y-87091097D01*
X155292279Y-87096931D01*
X153872022Y-88517188D01*
X153864408Y-88531132D01*
X153134356Y-88531132D01*
X153135592Y-88528868D01*
X153135461Y-88527035D01*
X153131210Y-88520420D01*
X151709475Y-87098685D01*
X151695714Y-87091171D01*
X151686354Y-87097628D01*
X151667730Y-87118864D01*
X151662719Y-87125395D01*
X151499219Y-87370091D01*
X151495098Y-87377228D01*
X151364935Y-87641174D01*
X151361785Y-87648778D01*
X151267186Y-87927457D01*
X151265055Y-87935409D01*
X151207640Y-88224056D01*
X151206566Y-88232214D01*
X151187318Y-88525881D01*
X151187318Y-88534119D01*
X143799303Y-88534119D01*
X143793931Y-88452149D01*
X143793930Y-88452145D01*
X143793661Y-88448034D01*
X143781241Y-88385592D01*
X143735429Y-88155279D01*
X143735427Y-88155273D01*
X143734624Y-88151234D01*
X143661133Y-87934735D01*
X143638678Y-87868586D01*
X143638677Y-87868585D01*
X143637352Y-87864680D01*
X143528781Y-87644520D01*
X143505336Y-87596978D01*
X143505333Y-87596972D01*
X143503509Y-87593274D01*
X143335386Y-87341659D01*
X143332672Y-87338565D01*
X143332668Y-87338559D01*
X143138567Y-87117231D01*
X143135858Y-87114142D01*
X143118233Y-87098685D01*
X142911441Y-86917332D01*
X142911435Y-86917328D01*
X142908341Y-86914614D01*
X142904911Y-86912322D01*
X142904910Y-86912321D01*
X142660160Y-86748785D01*
X142656727Y-86746491D01*
X142653028Y-86744667D01*
X142653023Y-86744664D01*
X142619142Y-86727956D01*
X152061097Y-86727956D01*
X152066931Y-86737721D01*
X153487188Y-88157978D01*
X153501132Y-88165592D01*
X153502965Y-88165461D01*
X153509580Y-88161210D01*
X154931315Y-86739475D01*
X154938829Y-86725714D01*
X154932372Y-86716354D01*
X154911136Y-86697730D01*
X154904605Y-86692719D01*
X154659909Y-86529219D01*
X154652772Y-86525098D01*
X154388826Y-86394935D01*
X154381222Y-86391785D01*
X154102543Y-86297186D01*
X154094591Y-86295055D01*
X153805944Y-86237640D01*
X153797786Y-86236566D01*
X153504119Y-86217318D01*
X153495881Y-86217318D01*
X153202214Y-86236566D01*
X153194056Y-86237640D01*
X152905409Y-86295055D01*
X152897457Y-86297186D01*
X152618778Y-86391785D01*
X152611174Y-86394935D01*
X152347228Y-86525098D01*
X152340091Y-86529219D01*
X152095395Y-86692719D01*
X152088864Y-86697730D01*
X152069493Y-86714719D01*
X152061097Y-86727956D01*
X142619142Y-86727956D01*
X142490697Y-86664614D01*
X142385320Y-86612648D01*
X142381414Y-86611322D01*
X142102673Y-86516702D01*
X142102670Y-86516701D01*
X142098766Y-86515376D01*
X142094727Y-86514573D01*
X142094721Y-86514571D01*
X141806009Y-86457143D01*
X141806006Y-86457143D01*
X141801966Y-86456339D01*
X141797855Y-86456070D01*
X141797851Y-86456069D01*
X141504119Y-86436817D01*
X141500000Y-86436547D01*
X141495881Y-86436817D01*
X141202149Y-86456069D01*
X141202145Y-86456070D01*
X141198034Y-86456339D01*
X141193994Y-86457143D01*
X141193991Y-86457143D01*
X140905279Y-86514571D01*
X140905273Y-86514573D01*
X140901234Y-86515376D01*
X140897330Y-86516701D01*
X140897327Y-86516702D01*
X140618586Y-86611322D01*
X140614680Y-86612648D01*
X140509304Y-86664614D01*
X140346978Y-86744664D01*
X140346973Y-86744667D01*
X140343274Y-86746491D01*
X140091659Y-86914614D01*
X140088565Y-86917328D01*
X140088559Y-86917332D01*
X139881767Y-87098685D01*
X139864142Y-87114142D01*
X139861433Y-87117231D01*
X139667332Y-87338559D01*
X139667328Y-87338565D01*
X139664614Y-87341659D01*
X139496491Y-87593274D01*
X139436593Y-87714735D01*
X139362727Y-87864520D01*
X139314658Y-87916768D01*
X139245973Y-87934735D01*
X139178477Y-87912716D01*
X139136715Y-87864519D01*
X139004902Y-87597228D01*
X139000781Y-87590091D01*
X138837281Y-87345395D01*
X138832270Y-87338864D01*
X138815281Y-87319493D01*
X138802044Y-87311097D01*
X138792279Y-87316931D01*
X137372022Y-88737188D01*
X137364408Y-88751132D01*
X136634356Y-88751132D01*
X136635592Y-88748868D01*
X136635461Y-88747035D01*
X136631210Y-88740420D01*
X135209475Y-87318685D01*
X135195714Y-87311171D01*
X135186354Y-87317628D01*
X135167730Y-87338864D01*
X135162719Y-87345395D01*
X134999219Y-87590091D01*
X134995098Y-87597228D01*
X134864935Y-87861174D01*
X134861785Y-87868778D01*
X134767186Y-88147457D01*
X134765055Y-88155409D01*
X134707640Y-88444056D01*
X134706566Y-88452214D01*
X134687318Y-88745881D01*
X134687318Y-88754119D01*
X133750000Y-88754119D01*
X133750000Y-86947956D01*
X135561097Y-86947956D01*
X135566931Y-86957721D01*
X136987188Y-88377978D01*
X137001132Y-88385592D01*
X137002965Y-88385461D01*
X137009580Y-88381210D01*
X138431315Y-86959475D01*
X138438829Y-86945714D01*
X138432372Y-86936354D01*
X138411136Y-86917730D01*
X138404605Y-86912719D01*
X138159909Y-86749219D01*
X138152772Y-86745098D01*
X137888826Y-86614935D01*
X137881222Y-86611785D01*
X137602543Y-86517186D01*
X137594591Y-86515055D01*
X137305944Y-86457640D01*
X137297786Y-86456566D01*
X137004119Y-86437318D01*
X136995881Y-86437318D01*
X136702214Y-86456566D01*
X136694056Y-86457640D01*
X136405409Y-86515055D01*
X136397457Y-86517186D01*
X136118778Y-86611785D01*
X136111174Y-86614935D01*
X135847228Y-86745098D01*
X135840091Y-86749219D01*
X135595395Y-86912719D01*
X135588864Y-86917730D01*
X135569493Y-86934719D01*
X135561097Y-86947956D01*
X133750000Y-86947956D01*
X133750000Y-85834500D01*
X133770002Y-85766379D01*
X133823658Y-85719886D01*
X133876000Y-85708500D01*
X167874000Y-85708500D01*
X167942121Y-85728502D01*
G37*
%TD.AperFunction*%
%TD*%
M02*
