%TF.GenerationSoftware,KiCad,Pcbnew,(6.0.7)*%
%TF.CreationDate,2023-08-08T19:22:38-05:00*%
%TF.ProjectId,PowerDistrubutionBoard,506f7765-7244-4697-9374-727562757469,rev?*%
%TF.SameCoordinates,Original*%
%TF.FileFunction,Copper,L1,Top*%
%TF.FilePolarity,Positive*%
%FSLAX46Y46*%
G04 Gerber Fmt 4.6, Leading zero omitted, Abs format (unit mm)*
G04 Created by KiCad (PCBNEW (6.0.7)) date 2023-08-08 19:22:38*
%MOMM*%
%LPD*%
G01*
G04 APERTURE LIST*
%TA.AperFunction,WasherPad*%
%ADD10C,3.600000*%
%TD*%
%TA.AperFunction,ConnectorPad*%
%ADD11C,6.000000*%
%TD*%
%TA.AperFunction,ComponentPad*%
%ADD12R,1.700000X1.700000*%
%TD*%
%TA.AperFunction,ComponentPad*%
%ADD13O,1.700000X1.700000*%
%TD*%
%TA.AperFunction,ComponentPad*%
%ADD14C,3.600000*%
%TD*%
%TA.AperFunction,ComponentPad*%
%ADD15R,1.350000X1.350000*%
%TD*%
%TA.AperFunction,ComponentPad*%
%ADD16O,1.350000X1.350000*%
%TD*%
%TA.AperFunction,Conductor*%
%ADD17C,0.250000*%
%TD*%
%TA.AperFunction,Conductor*%
%ADD18C,3.000000*%
%TD*%
G04 APERTURE END LIST*
D10*
%TO.P,S1,*%
%TO.N,*%
X171750000Y-99750000D03*
D11*
%TO.P,S1,1,1*%
%TO.N,Net-(T3-Pad1)*%
X171750000Y-99750000D03*
%TD*%
D12*
%TO.P,J6,1,Pin_1*%
%TO.N,unconnected-(J6-Pad1)*%
X101000000Y-86840000D03*
D13*
%TO.P,J6,2,Pin_2*%
%TO.N,Net-(J2-Pad1)*%
X101000000Y-89380000D03*
%TO.P,J6,3,Pin_3*%
%TO.N,Net-(J2-Pad2)*%
X101000000Y-91920000D03*
%TO.P,J6,4,Pin_4*%
%TO.N,Net-(J2-Pad3)*%
X101000000Y-94460000D03*
%TO.P,J6,5,Pin_5*%
%TO.N,Net-(J2-Pad4)*%
X101000000Y-97000000D03*
%TO.P,J6,6,Pin_6*%
%TO.N,Net-(J2-Pad5)*%
X101000000Y-99540000D03*
%TO.P,J6,7,Pin_7*%
%TO.N,Net-(J2-Pad6)*%
X101000000Y-102080000D03*
%TD*%
D12*
%TO.P,J4,1,Pin_1*%
%TO.N,Net-(J1-Pad3)*%
X106500000Y-86840000D03*
D13*
%TO.P,J4,2,Pin_2*%
%TO.N,unconnected-(J4-Pad2)*%
X106500000Y-89380000D03*
%TO.P,J4,3,Pin_3*%
%TO.N,unconnected-(J4-Pad3)*%
X106500000Y-91920000D03*
%TO.P,J4,4,Pin_4*%
%TO.N,unconnected-(J4-Pad4)*%
X106500000Y-94460000D03*
%TO.P,J4,5,Pin_5*%
%TO.N,unconnected-(J4-Pad5)*%
X106500000Y-97000000D03*
%TO.P,J4,6,Pin_6*%
%TO.N,unconnected-(J4-Pad6)*%
X106500000Y-99540000D03*
%TO.P,J4,7,Pin_7*%
%TO.N,unconnected-(J4-Pad7)*%
X106500000Y-102080000D03*
%TD*%
D14*
%TO.P,T2,1,+*%
%TO.N,Net-(J1-Pad1)*%
X137000000Y-88750000D03*
%TO.P,T2,2,-*%
%TO.N,Net-(J1-Pad2)*%
X141500000Y-88750000D03*
%TD*%
D12*
%TO.P,J2,1,Pin_1*%
%TO.N,Net-(J2-Pad1)*%
X131500000Y-89400000D03*
D13*
%TO.P,J2,2,Pin_2*%
%TO.N,Net-(J2-Pad2)*%
X131500000Y-91940000D03*
%TO.P,J2,3,Pin_3*%
%TO.N,Net-(J2-Pad3)*%
X131500000Y-94480000D03*
%TO.P,J2,4,Pin_4*%
%TO.N,Net-(J2-Pad4)*%
X131500000Y-97020000D03*
%TO.P,J2,5,Pin_5*%
%TO.N,Net-(J2-Pad5)*%
X131500000Y-99560000D03*
%TO.P,J2,6,Pin_6*%
%TO.N,Net-(J2-Pad6)*%
X131500000Y-102100000D03*
%TD*%
D14*
%TO.P,T3,1,+*%
%TO.N,Net-(T3-Pad1)*%
X171780000Y-93000000D03*
%TO.P,T3,2,-*%
%TO.N,Net-(J1-Pad2)*%
X171780000Y-88500000D03*
%TD*%
D15*
%TO.P,J1,1,Pin_1*%
%TO.N,Net-(J1-Pad1)*%
X126250000Y-87750000D03*
D16*
%TO.P,J1,2,Pin_2*%
%TO.N,Net-(J1-Pad2)*%
X126250000Y-89750000D03*
%TO.P,J1,3,Pin_3*%
%TO.N,Net-(J1-Pad3)*%
X126250000Y-91750000D03*
%TO.P,J1,4,Pin_4*%
%TO.N,Net-(J1-Pad4)*%
X126250000Y-93750000D03*
%TD*%
D14*
%TO.P,T4,1,+*%
%TO.N,Net-(J1-Pad1)*%
X153500000Y-88530000D03*
%TO.P,T4,2,-*%
%TO.N,Net-(J1-Pad2)*%
X158000000Y-88530000D03*
%TD*%
D12*
%TO.P,J5,1,Pin_1*%
%TO.N,Net-(J1-Pad4)*%
X103750000Y-86840000D03*
D13*
%TO.P,J5,2,Pin_2*%
%TO.N,unconnected-(J5-Pad2)*%
X103750000Y-89380000D03*
%TO.P,J5,3,Pin_3*%
%TO.N,unconnected-(J5-Pad3)*%
X103750000Y-91920000D03*
%TO.P,J5,4,Pin_4*%
%TO.N,unconnected-(J5-Pad4)*%
X103750000Y-94460000D03*
%TO.P,J5,5,Pin_5*%
%TO.N,unconnected-(J5-Pad5)*%
X103750000Y-97000000D03*
%TO.P,J5,6,Pin_6*%
%TO.N,unconnected-(J5-Pad6)*%
X103750000Y-99540000D03*
%TO.P,J5,7,Pin_7*%
%TO.N,unconnected-(J5-Pad7)*%
X103750000Y-102080000D03*
%TD*%
D14*
%TO.P,T1,1,+*%
%TO.N,Net-(J1-Pad1)*%
X137000000Y-100000000D03*
%TO.P,T1,2,-*%
%TO.N,Net-(J1-Pad2)*%
X141500000Y-100000000D03*
%TD*%
D17*
%TO.N,Net-(T3-Pad1)*%
X171780000Y-93000000D02*
X171750000Y-93030000D01*
%TO.N,Net-(J1-Pad2)*%
X138750000Y-86000000D02*
X131750000Y-86000000D01*
D18*
X171780000Y-88500000D02*
X167500000Y-88500000D01*
D17*
X141500000Y-88750000D02*
X138750000Y-86000000D01*
X128000000Y-89750000D02*
X126250000Y-89750000D01*
X131750000Y-86000000D02*
X128000000Y-89750000D01*
%TO.N,Net-(J1-Pad3)*%
X107340000Y-86000000D02*
X106500000Y-86840000D01*
X126250000Y-91750000D02*
X121340000Y-86840000D01*
X121340000Y-86840000D02*
X106500000Y-86840000D01*
%TO.N,Net-(J1-Pad4)*%
X126250000Y-93750000D02*
X120515000Y-88015000D01*
X120515000Y-88015000D02*
X104925000Y-88015000D01*
X104925000Y-88015000D02*
X103750000Y-86840000D01*
%TO.N,Net-(J2-Pad1)*%
X115750000Y-99500000D02*
X122278299Y-99500000D01*
X102175000Y-90555000D02*
X106805000Y-90555000D01*
X106805000Y-90555000D02*
X115750000Y-99500000D01*
X101000000Y-89380000D02*
X102175000Y-90555000D01*
X122278299Y-99500000D02*
X131500000Y-90278299D01*
X131500000Y-90278299D02*
X131500000Y-89400000D01*
%TO.N,Net-(J2-Pad2)*%
X123875000Y-100250000D02*
X131500000Y-92625000D01*
X114000000Y-100250000D02*
X123875000Y-100250000D01*
X131500000Y-92625000D02*
X131500000Y-91940000D01*
X101000000Y-91920000D02*
X102175000Y-93095000D01*
X102175000Y-93095000D02*
X106845000Y-93095000D01*
X106845000Y-93095000D02*
X114000000Y-100250000D01*
%TO.N,Net-(J2-Pad3)*%
X112250000Y-101000000D02*
X125750000Y-101000000D01*
X102175000Y-95635000D02*
X106885000Y-95635000D01*
X125750000Y-101000000D02*
X131500000Y-95250000D01*
X106885000Y-95635000D02*
X112250000Y-101000000D01*
X101000000Y-94460000D02*
X102175000Y-95635000D01*
X131500000Y-95250000D02*
X131500000Y-94480000D01*
%TO.N,Net-(J2-Pad4)*%
X101000000Y-97000000D02*
X102175000Y-98175000D01*
X107175000Y-98175000D02*
X110750000Y-101750000D01*
X110750000Y-101750000D02*
X127500000Y-101750000D01*
X127500000Y-101750000D02*
X131500000Y-97750000D01*
X131500000Y-97750000D02*
X131500000Y-97020000D01*
X102175000Y-98175000D02*
X107175000Y-98175000D01*
%TO.N,Net-(J2-Pad5)*%
X131500000Y-100250000D02*
X131500000Y-99560000D01*
X107215000Y-100715000D02*
X109000000Y-102500000D01*
X109000000Y-102500000D02*
X129250000Y-102500000D01*
X129250000Y-102500000D02*
X131500000Y-100250000D01*
X102175000Y-100715000D02*
X107215000Y-100715000D01*
X101000000Y-99540000D02*
X102175000Y-100715000D01*
%TO.N,Net-(J2-Pad6)*%
X101000000Y-102080000D02*
X102175000Y-103255000D01*
X130345000Y-103255000D02*
X131500000Y-102100000D01*
X102175000Y-103255000D02*
X130345000Y-103255000D01*
%TD*%
%TA.AperFunction,Conductor*%
%TO.N,Net-(J1-Pad2)*%
G36*
X167942121Y-85728502D02*
G01*
X167988614Y-85782158D01*
X168000000Y-85834500D01*
X168000000Y-103065500D01*
X167979998Y-103133621D01*
X167926342Y-103180114D01*
X167874000Y-103191500D01*
X133876000Y-103191500D01*
X133807879Y-103171498D01*
X133761386Y-103117842D01*
X133750000Y-103065500D01*
X133750000Y-100000000D01*
X134686547Y-100000000D01*
X134706339Y-100301966D01*
X134707143Y-100306006D01*
X134707143Y-100306009D01*
X134764546Y-100594591D01*
X134765376Y-100598766D01*
X134766701Y-100602670D01*
X134766702Y-100602673D01*
X134846342Y-100837284D01*
X134862648Y-100885320D01*
X134996491Y-101156726D01*
X135164614Y-101408341D01*
X135167328Y-101411435D01*
X135167332Y-101411441D01*
X135191351Y-101438829D01*
X135364142Y-101635858D01*
X135367231Y-101638567D01*
X135588559Y-101832668D01*
X135588565Y-101832672D01*
X135591659Y-101835386D01*
X135595085Y-101837675D01*
X135595090Y-101837679D01*
X135783371Y-101963484D01*
X135843273Y-102003509D01*
X135846972Y-102005333D01*
X135846977Y-102005336D01*
X135986308Y-102074046D01*
X136114680Y-102137352D01*
X136118585Y-102138677D01*
X136118586Y-102138678D01*
X136397327Y-102233298D01*
X136397330Y-102233299D01*
X136401234Y-102234624D01*
X136405273Y-102235427D01*
X136405279Y-102235429D01*
X136693991Y-102292857D01*
X136693994Y-102292857D01*
X136698034Y-102293661D01*
X136702145Y-102293930D01*
X136702149Y-102293931D01*
X136995881Y-102313183D01*
X137000000Y-102313453D01*
X137004119Y-102313183D01*
X137297851Y-102293931D01*
X137297855Y-102293930D01*
X137301966Y-102293661D01*
X137306006Y-102292857D01*
X137306009Y-102292857D01*
X137594721Y-102235429D01*
X137594727Y-102235427D01*
X137598766Y-102234624D01*
X137602670Y-102233299D01*
X137602673Y-102233298D01*
X137881414Y-102138678D01*
X137881415Y-102138677D01*
X137885320Y-102137352D01*
X138013692Y-102074046D01*
X138153023Y-102005336D01*
X138153028Y-102005333D01*
X138156727Y-102003509D01*
X138216629Y-101963484D01*
X138404910Y-101837679D01*
X138404915Y-101837675D01*
X138408341Y-101835386D01*
X138411435Y-101832672D01*
X138411441Y-101832668D01*
X138443804Y-101804286D01*
X140061171Y-101804286D01*
X140067628Y-101813646D01*
X140088864Y-101832270D01*
X140095395Y-101837281D01*
X140340091Y-102000781D01*
X140347228Y-102004902D01*
X140611174Y-102135065D01*
X140618778Y-102138215D01*
X140897457Y-102232814D01*
X140905409Y-102234945D01*
X141194056Y-102292360D01*
X141202214Y-102293434D01*
X141495881Y-102312682D01*
X141504119Y-102312682D01*
X141797786Y-102293434D01*
X141805944Y-102292360D01*
X142094591Y-102234945D01*
X142102543Y-102232814D01*
X142381222Y-102138215D01*
X142388826Y-102135065D01*
X142652772Y-102004902D01*
X142659909Y-102000781D01*
X142904605Y-101837281D01*
X142911136Y-101832270D01*
X142930507Y-101815281D01*
X142938903Y-101802044D01*
X142933069Y-101792279D01*
X141512812Y-100372022D01*
X141498868Y-100364408D01*
X141497035Y-100364539D01*
X141490420Y-100368790D01*
X140068685Y-101790525D01*
X140061171Y-101804286D01*
X138443804Y-101804286D01*
X138632769Y-101638567D01*
X138635858Y-101635858D01*
X138808649Y-101438829D01*
X138832668Y-101411441D01*
X138832672Y-101411435D01*
X138835386Y-101408341D01*
X139003509Y-101156726D01*
X139137273Y-100885480D01*
X139185342Y-100833232D01*
X139254027Y-100815265D01*
X139321523Y-100837284D01*
X139363285Y-100885481D01*
X139495098Y-101152772D01*
X139499219Y-101159909D01*
X139662719Y-101404605D01*
X139667730Y-101411136D01*
X139684719Y-101430507D01*
X139697956Y-101438903D01*
X139707721Y-101433069D01*
X141127978Y-100012812D01*
X141134356Y-100001132D01*
X141864408Y-100001132D01*
X141864539Y-100002965D01*
X141868790Y-100009580D01*
X143290525Y-101431315D01*
X143304286Y-101438829D01*
X143313646Y-101432372D01*
X143332270Y-101411136D01*
X143337281Y-101404605D01*
X143500781Y-101159909D01*
X143504902Y-101152772D01*
X143635065Y-100888826D01*
X143638215Y-100881222D01*
X143732814Y-100602543D01*
X143734945Y-100594591D01*
X143792360Y-100305944D01*
X143793434Y-100297786D01*
X143812682Y-100004119D01*
X143812682Y-99995881D01*
X143793434Y-99702214D01*
X143792360Y-99694056D01*
X143734945Y-99405409D01*
X143732814Y-99397457D01*
X143638215Y-99118778D01*
X143635065Y-99111174D01*
X143504902Y-98847228D01*
X143500781Y-98840091D01*
X143337281Y-98595395D01*
X143332270Y-98588864D01*
X143315281Y-98569493D01*
X143302044Y-98561097D01*
X143292279Y-98566931D01*
X141872022Y-99987188D01*
X141864408Y-100001132D01*
X141134356Y-100001132D01*
X141135592Y-99998868D01*
X141135461Y-99997035D01*
X141131210Y-99990420D01*
X139709475Y-98568685D01*
X139695714Y-98561171D01*
X139686354Y-98567628D01*
X139667730Y-98588864D01*
X139662719Y-98595395D01*
X139499219Y-98840091D01*
X139495098Y-98847228D01*
X139363285Y-99114519D01*
X139315217Y-99166768D01*
X139246531Y-99184735D01*
X139179035Y-99162716D01*
X139137273Y-99114520D01*
X139135528Y-99110982D01*
X139003509Y-98843274D01*
X138835386Y-98591659D01*
X138832672Y-98588565D01*
X138832668Y-98588559D01*
X138638567Y-98367231D01*
X138635858Y-98364142D01*
X138457495Y-98207721D01*
X138446360Y-98197956D01*
X140061097Y-98197956D01*
X140066931Y-98207721D01*
X141487188Y-99627978D01*
X141501132Y-99635592D01*
X141502965Y-99635461D01*
X141509580Y-99631210D01*
X142931315Y-98209475D01*
X142938829Y-98195714D01*
X142932372Y-98186354D01*
X142911136Y-98167730D01*
X142904605Y-98162719D01*
X142659909Y-97999219D01*
X142652772Y-97995098D01*
X142388826Y-97864935D01*
X142381222Y-97861785D01*
X142102543Y-97767186D01*
X142094591Y-97765055D01*
X141805944Y-97707640D01*
X141797786Y-97706566D01*
X141504119Y-97687318D01*
X141495881Y-97687318D01*
X141202214Y-97706566D01*
X141194056Y-97707640D01*
X140905409Y-97765055D01*
X140897457Y-97767186D01*
X140618778Y-97861785D01*
X140611174Y-97864935D01*
X140347228Y-97995098D01*
X140340091Y-97999219D01*
X140095395Y-98162719D01*
X140088864Y-98167730D01*
X140069493Y-98184719D01*
X140061097Y-98197956D01*
X138446360Y-98197956D01*
X138411441Y-98167332D01*
X138411435Y-98167328D01*
X138408341Y-98164614D01*
X138404911Y-98162322D01*
X138404910Y-98162321D01*
X138160160Y-97998785D01*
X138156727Y-97996491D01*
X138153028Y-97994667D01*
X138153023Y-97994664D01*
X138013692Y-97925954D01*
X137885320Y-97862648D01*
X137881414Y-97861322D01*
X137602673Y-97766702D01*
X137602670Y-97766701D01*
X137598766Y-97765376D01*
X137594727Y-97764573D01*
X137594721Y-97764571D01*
X137306009Y-97707143D01*
X137306006Y-97707143D01*
X137301966Y-97706339D01*
X137297855Y-97706070D01*
X137297851Y-97706069D01*
X137004119Y-97686817D01*
X137000000Y-97686547D01*
X136995881Y-97686817D01*
X136702149Y-97706069D01*
X136702145Y-97706070D01*
X136698034Y-97706339D01*
X136693994Y-97707143D01*
X136693991Y-97707143D01*
X136405279Y-97764571D01*
X136405273Y-97764573D01*
X136401234Y-97765376D01*
X136397330Y-97766701D01*
X136397327Y-97766702D01*
X136118586Y-97861322D01*
X136114680Y-97862648D01*
X135986442Y-97925888D01*
X135846978Y-97994664D01*
X135846973Y-97994667D01*
X135843274Y-97996491D01*
X135591659Y-98164614D01*
X135588565Y-98167328D01*
X135588559Y-98167332D01*
X135542505Y-98207721D01*
X135364142Y-98364142D01*
X135361433Y-98367231D01*
X135167332Y-98588559D01*
X135167328Y-98588565D01*
X135164614Y-98591659D01*
X134996491Y-98843274D01*
X134862648Y-99114680D01*
X134861323Y-99118585D01*
X134861322Y-99118586D01*
X134838868Y-99184735D01*
X134765376Y-99401234D01*
X134764573Y-99405273D01*
X134764571Y-99405279D01*
X134718759Y-99635592D01*
X134706339Y-99698034D01*
X134686547Y-100000000D01*
X133750000Y-100000000D01*
X133750000Y-88750000D01*
X134686547Y-88750000D01*
X134706339Y-89051966D01*
X134707143Y-89056006D01*
X134707143Y-89056009D01*
X134764546Y-89344591D01*
X134765376Y-89348766D01*
X134766701Y-89352670D01*
X134766702Y-89352673D01*
X134846342Y-89587284D01*
X134862648Y-89635320D01*
X134996491Y-89906726D01*
X135164614Y-90158341D01*
X135167328Y-90161435D01*
X135167332Y-90161441D01*
X135191351Y-90188829D01*
X135364142Y-90385858D01*
X135367231Y-90388567D01*
X135588559Y-90582668D01*
X135588565Y-90582672D01*
X135591659Y-90585386D01*
X135595085Y-90587675D01*
X135595090Y-90587679D01*
X135710907Y-90665065D01*
X135843273Y-90753509D01*
X135846972Y-90755333D01*
X135846977Y-90755336D01*
X135867444Y-90765429D01*
X136114680Y-90887352D01*
X136118585Y-90888677D01*
X136118586Y-90888678D01*
X136397327Y-90983298D01*
X136397330Y-90983299D01*
X136401234Y-90984624D01*
X136405273Y-90985427D01*
X136405279Y-90985429D01*
X136693991Y-91042857D01*
X136693994Y-91042857D01*
X136698034Y-91043661D01*
X136702145Y-91043930D01*
X136702149Y-91043931D01*
X136995881Y-91063183D01*
X137000000Y-91063453D01*
X137004119Y-91063183D01*
X137297851Y-91043931D01*
X137297855Y-91043930D01*
X137301966Y-91043661D01*
X137306006Y-91042857D01*
X137306009Y-91042857D01*
X137594721Y-90985429D01*
X137594727Y-90985427D01*
X137598766Y-90984624D01*
X137602670Y-90983299D01*
X137602673Y-90983298D01*
X137881414Y-90888678D01*
X137881415Y-90888677D01*
X137885320Y-90887352D01*
X138132556Y-90765429D01*
X138153023Y-90755336D01*
X138153028Y-90755333D01*
X138156727Y-90753509D01*
X138289093Y-90665065D01*
X138404910Y-90587679D01*
X138404915Y-90587675D01*
X138408341Y-90585386D01*
X138411435Y-90582672D01*
X138411441Y-90582668D01*
X138443804Y-90554286D01*
X140061171Y-90554286D01*
X140067628Y-90563646D01*
X140088864Y-90582270D01*
X140095395Y-90587281D01*
X140340091Y-90750781D01*
X140347228Y-90754902D01*
X140611174Y-90885065D01*
X140618778Y-90888215D01*
X140897457Y-90982814D01*
X140905409Y-90984945D01*
X141194056Y-91042360D01*
X141202214Y-91043434D01*
X141495881Y-91062682D01*
X141504119Y-91062682D01*
X141797786Y-91043434D01*
X141805944Y-91042360D01*
X142094591Y-90984945D01*
X142102543Y-90982814D01*
X142381222Y-90888215D01*
X142388826Y-90885065D01*
X142652772Y-90754902D01*
X142659909Y-90750781D01*
X142904605Y-90587281D01*
X142911136Y-90582270D01*
X142930507Y-90565281D01*
X142938903Y-90552044D01*
X142933069Y-90542279D01*
X141512812Y-89122022D01*
X141498868Y-89114408D01*
X141497035Y-89114539D01*
X141490420Y-89118790D01*
X140068685Y-90540525D01*
X140061171Y-90554286D01*
X138443804Y-90554286D01*
X138632769Y-90388567D01*
X138635858Y-90385858D01*
X138808649Y-90188829D01*
X138832668Y-90161441D01*
X138832672Y-90161435D01*
X138835386Y-90158341D01*
X139003509Y-89906726D01*
X139137273Y-89635480D01*
X139185342Y-89583232D01*
X139254027Y-89565265D01*
X139321523Y-89587284D01*
X139363285Y-89635481D01*
X139495098Y-89902772D01*
X139499219Y-89909909D01*
X139662719Y-90154605D01*
X139667730Y-90161136D01*
X139684719Y-90180507D01*
X139697956Y-90188903D01*
X139707721Y-90183069D01*
X141127978Y-88762812D01*
X141134356Y-88751132D01*
X141864408Y-88751132D01*
X141864539Y-88752965D01*
X141868790Y-88759580D01*
X143290525Y-90181315D01*
X143304286Y-90188829D01*
X143313646Y-90182372D01*
X143332270Y-90161136D01*
X143337281Y-90154605D01*
X143500781Y-89909909D01*
X143504902Y-89902772D01*
X143635065Y-89638826D01*
X143638215Y-89631222D01*
X143732814Y-89352543D01*
X143734945Y-89344591D01*
X143792360Y-89055944D01*
X143793434Y-89047786D01*
X143812682Y-88754119D01*
X143812682Y-88745881D01*
X143798532Y-88530000D01*
X151186547Y-88530000D01*
X151186817Y-88534119D01*
X151201595Y-88759580D01*
X151206339Y-88831966D01*
X151207143Y-88836006D01*
X151207143Y-88836009D01*
X151264546Y-89124591D01*
X151265376Y-89128766D01*
X151266701Y-89132670D01*
X151266702Y-89132673D01*
X151346342Y-89367284D01*
X151362648Y-89415320D01*
X151364472Y-89419018D01*
X151471220Y-89635481D01*
X151496491Y-89686726D01*
X151664614Y-89938341D01*
X151667328Y-89941435D01*
X151667332Y-89941441D01*
X151691351Y-89968829D01*
X151864142Y-90165858D01*
X151867231Y-90168567D01*
X152088559Y-90362668D01*
X152088565Y-90362672D01*
X152091659Y-90365386D01*
X152095085Y-90367675D01*
X152095090Y-90367679D01*
X152283371Y-90493484D01*
X152343273Y-90533509D01*
X152346972Y-90535333D01*
X152346977Y-90535336D01*
X152448469Y-90585386D01*
X152614680Y-90667352D01*
X152618585Y-90668677D01*
X152618586Y-90668678D01*
X152897327Y-90763298D01*
X152897330Y-90763299D01*
X152901234Y-90764624D01*
X152905273Y-90765427D01*
X152905279Y-90765429D01*
X153193991Y-90822857D01*
X153193994Y-90822857D01*
X153198034Y-90823661D01*
X153202145Y-90823930D01*
X153202149Y-90823931D01*
X153495881Y-90843183D01*
X153500000Y-90843453D01*
X153504119Y-90843183D01*
X153797851Y-90823931D01*
X153797855Y-90823930D01*
X153801966Y-90823661D01*
X153806006Y-90822857D01*
X153806009Y-90822857D01*
X154094721Y-90765429D01*
X154094727Y-90765427D01*
X154098766Y-90764624D01*
X154102670Y-90763299D01*
X154102673Y-90763298D01*
X154381414Y-90668678D01*
X154381415Y-90668677D01*
X154385320Y-90667352D01*
X154551531Y-90585386D01*
X154653023Y-90535336D01*
X154653028Y-90535333D01*
X154656727Y-90533509D01*
X154716629Y-90493484D01*
X154904910Y-90367679D01*
X154904915Y-90367675D01*
X154908341Y-90365386D01*
X154911435Y-90362672D01*
X154911441Y-90362668D01*
X154943804Y-90334286D01*
X156561171Y-90334286D01*
X156567628Y-90343646D01*
X156588864Y-90362270D01*
X156595395Y-90367281D01*
X156840091Y-90530781D01*
X156847228Y-90534902D01*
X157111174Y-90665065D01*
X157118778Y-90668215D01*
X157397457Y-90762814D01*
X157405409Y-90764945D01*
X157694056Y-90822360D01*
X157702214Y-90823434D01*
X157995881Y-90842682D01*
X158004119Y-90842682D01*
X158297786Y-90823434D01*
X158305944Y-90822360D01*
X158594591Y-90764945D01*
X158602543Y-90762814D01*
X158881222Y-90668215D01*
X158888826Y-90665065D01*
X159152772Y-90534902D01*
X159159909Y-90530781D01*
X159404605Y-90367281D01*
X159411136Y-90362270D01*
X159430507Y-90345281D01*
X159438903Y-90332044D01*
X159433069Y-90322279D01*
X158012812Y-88902022D01*
X157998868Y-88894408D01*
X157997035Y-88894539D01*
X157990420Y-88898790D01*
X156568685Y-90320525D01*
X156561171Y-90334286D01*
X154943804Y-90334286D01*
X155132769Y-90168567D01*
X155135858Y-90165858D01*
X155308649Y-89968829D01*
X155332668Y-89941441D01*
X155332672Y-89941435D01*
X155335386Y-89938341D01*
X155503509Y-89686726D01*
X155637273Y-89415480D01*
X155685342Y-89363232D01*
X155754027Y-89345265D01*
X155821523Y-89367284D01*
X155863285Y-89415481D01*
X155995098Y-89682772D01*
X155999219Y-89689909D01*
X156162719Y-89934605D01*
X156167730Y-89941136D01*
X156184719Y-89960507D01*
X156197956Y-89968903D01*
X156207721Y-89963069D01*
X157627978Y-88542812D01*
X157634356Y-88531132D01*
X158364408Y-88531132D01*
X158364539Y-88532965D01*
X158368790Y-88539580D01*
X159790525Y-89961315D01*
X159804286Y-89968829D01*
X159813646Y-89962372D01*
X159832270Y-89941136D01*
X159837281Y-89934605D01*
X160000781Y-89689909D01*
X160004902Y-89682772D01*
X160135065Y-89418826D01*
X160138215Y-89411222D01*
X160232814Y-89132543D01*
X160234945Y-89124591D01*
X160292360Y-88835944D01*
X160293434Y-88827786D01*
X160312682Y-88534119D01*
X160312682Y-88525881D01*
X160293434Y-88232214D01*
X160292360Y-88224056D01*
X160234945Y-87935409D01*
X160232814Y-87927457D01*
X160138215Y-87648778D01*
X160135065Y-87641174D01*
X160004902Y-87377228D01*
X160000781Y-87370091D01*
X159837281Y-87125395D01*
X159832270Y-87118864D01*
X159815281Y-87099493D01*
X159802044Y-87091097D01*
X159792279Y-87096931D01*
X158372022Y-88517188D01*
X158364408Y-88531132D01*
X157634356Y-88531132D01*
X157635592Y-88528868D01*
X157635461Y-88527035D01*
X157631210Y-88520420D01*
X156209475Y-87098685D01*
X156195714Y-87091171D01*
X156186354Y-87097628D01*
X156167730Y-87118864D01*
X156162719Y-87125395D01*
X155999219Y-87370091D01*
X155995098Y-87377228D01*
X155863285Y-87644519D01*
X155815217Y-87696768D01*
X155746531Y-87714735D01*
X155679035Y-87692716D01*
X155637273Y-87644520D01*
X155612001Y-87593274D01*
X155503509Y-87373274D01*
X155335386Y-87121659D01*
X155332672Y-87118565D01*
X155332668Y-87118559D01*
X155138567Y-86897231D01*
X155135858Y-86894142D01*
X154970111Y-86748785D01*
X154946360Y-86727956D01*
X156561097Y-86727956D01*
X156566931Y-86737721D01*
X157987188Y-88157978D01*
X158001132Y-88165592D01*
X158002965Y-88165461D01*
X158009580Y-88161210D01*
X159431315Y-86739475D01*
X159438829Y-86725714D01*
X159432372Y-86716354D01*
X159411136Y-86697730D01*
X159404605Y-86692719D01*
X159159909Y-86529219D01*
X159152772Y-86525098D01*
X158888826Y-86394935D01*
X158881222Y-86391785D01*
X158602543Y-86297186D01*
X158594591Y-86295055D01*
X158305944Y-86237640D01*
X158297786Y-86236566D01*
X158004119Y-86217318D01*
X157995881Y-86217318D01*
X157702214Y-86236566D01*
X157694056Y-86237640D01*
X157405409Y-86295055D01*
X157397457Y-86297186D01*
X157118778Y-86391785D01*
X157111174Y-86394935D01*
X156847228Y-86525098D01*
X156840091Y-86529219D01*
X156595395Y-86692719D01*
X156588864Y-86697730D01*
X156569493Y-86714719D01*
X156561097Y-86727956D01*
X154946360Y-86727956D01*
X154911441Y-86697332D01*
X154911435Y-86697328D01*
X154908341Y-86694614D01*
X154904911Y-86692322D01*
X154904910Y-86692321D01*
X154660160Y-86528785D01*
X154656727Y-86526491D01*
X154653028Y-86524667D01*
X154653023Y-86524664D01*
X154474338Y-86436547D01*
X154385320Y-86392648D01*
X154381414Y-86391322D01*
X154102673Y-86296702D01*
X154102670Y-86296701D01*
X154098766Y-86295376D01*
X154094727Y-86294573D01*
X154094721Y-86294571D01*
X153806009Y-86237143D01*
X153806006Y-86237143D01*
X153801966Y-86236339D01*
X153797855Y-86236070D01*
X153797851Y-86236069D01*
X153504119Y-86216817D01*
X153500000Y-86216547D01*
X153495881Y-86216817D01*
X153202149Y-86236069D01*
X153202145Y-86236070D01*
X153198034Y-86236339D01*
X153193994Y-86237143D01*
X153193991Y-86237143D01*
X152905279Y-86294571D01*
X152905273Y-86294573D01*
X152901234Y-86295376D01*
X152897330Y-86296701D01*
X152897327Y-86296702D01*
X152618586Y-86391322D01*
X152614680Y-86392648D01*
X152486442Y-86455888D01*
X152346978Y-86524664D01*
X152346973Y-86524667D01*
X152343274Y-86526491D01*
X152091659Y-86694614D01*
X152088565Y-86697328D01*
X152088559Y-86697332D01*
X152029889Y-86748785D01*
X151864142Y-86894142D01*
X151861433Y-86897231D01*
X151667332Y-87118559D01*
X151667328Y-87118565D01*
X151664614Y-87121659D01*
X151496491Y-87373274D01*
X151362648Y-87644680D01*
X151361323Y-87648585D01*
X151361322Y-87648586D01*
X151270287Y-87916768D01*
X151265376Y-87931234D01*
X151264573Y-87935273D01*
X151264571Y-87935279D01*
X151218759Y-88165592D01*
X151206339Y-88228034D01*
X151186547Y-88530000D01*
X143798532Y-88530000D01*
X143793434Y-88452214D01*
X143792360Y-88444056D01*
X143734945Y-88155409D01*
X143732814Y-88147457D01*
X143638215Y-87868778D01*
X143635065Y-87861174D01*
X143504902Y-87597228D01*
X143500781Y-87590091D01*
X143337281Y-87345395D01*
X143332270Y-87338864D01*
X143315281Y-87319493D01*
X143302044Y-87311097D01*
X143292279Y-87316931D01*
X141872022Y-88737188D01*
X141864408Y-88751132D01*
X141134356Y-88751132D01*
X141135592Y-88748868D01*
X141135461Y-88747035D01*
X141131210Y-88740420D01*
X139709475Y-87318685D01*
X139695714Y-87311171D01*
X139686354Y-87317628D01*
X139667730Y-87338864D01*
X139662719Y-87345395D01*
X139499219Y-87590091D01*
X139495098Y-87597228D01*
X139363285Y-87864519D01*
X139315217Y-87916768D01*
X139246531Y-87934735D01*
X139179035Y-87912716D01*
X139137273Y-87864520D01*
X139063407Y-87714735D01*
X139003509Y-87593274D01*
X138835386Y-87341659D01*
X138832672Y-87338565D01*
X138832668Y-87338559D01*
X138638567Y-87117231D01*
X138635858Y-87114142D01*
X138618233Y-87098685D01*
X138446361Y-86947956D01*
X140061097Y-86947956D01*
X140066931Y-86957721D01*
X141487188Y-88377978D01*
X141501132Y-88385592D01*
X141502965Y-88385461D01*
X141509580Y-88381210D01*
X142931315Y-86959475D01*
X142938829Y-86945714D01*
X142932372Y-86936354D01*
X142911136Y-86917730D01*
X142904605Y-86912719D01*
X142659909Y-86749219D01*
X142652772Y-86745098D01*
X142388826Y-86614935D01*
X142381222Y-86611785D01*
X142102543Y-86517186D01*
X142094591Y-86515055D01*
X141805944Y-86457640D01*
X141797786Y-86456566D01*
X141504119Y-86437318D01*
X141495881Y-86437318D01*
X141202214Y-86456566D01*
X141194056Y-86457640D01*
X140905409Y-86515055D01*
X140897457Y-86517186D01*
X140618778Y-86611785D01*
X140611174Y-86614935D01*
X140347228Y-86745098D01*
X140340091Y-86749219D01*
X140095395Y-86912719D01*
X140088864Y-86917730D01*
X140069493Y-86934719D01*
X140061097Y-86947956D01*
X138446361Y-86947956D01*
X138411441Y-86917332D01*
X138411435Y-86917328D01*
X138408341Y-86914614D01*
X138404911Y-86912322D01*
X138404910Y-86912321D01*
X138160160Y-86748785D01*
X138156727Y-86746491D01*
X138153028Y-86744667D01*
X138153023Y-86744664D01*
X138013692Y-86675954D01*
X137885320Y-86612648D01*
X137881414Y-86611322D01*
X137602673Y-86516702D01*
X137602670Y-86516701D01*
X137598766Y-86515376D01*
X137594727Y-86514573D01*
X137594721Y-86514571D01*
X137306009Y-86457143D01*
X137306006Y-86457143D01*
X137301966Y-86456339D01*
X137297855Y-86456070D01*
X137297851Y-86456069D01*
X137004119Y-86436817D01*
X137000000Y-86436547D01*
X136995881Y-86436817D01*
X136702149Y-86456069D01*
X136702145Y-86456070D01*
X136698034Y-86456339D01*
X136693994Y-86457143D01*
X136693991Y-86457143D01*
X136405279Y-86514571D01*
X136405273Y-86514573D01*
X136401234Y-86515376D01*
X136397330Y-86516701D01*
X136397327Y-86516702D01*
X136118586Y-86611322D01*
X136114680Y-86612648D01*
X135986442Y-86675888D01*
X135846978Y-86744664D01*
X135846973Y-86744667D01*
X135843274Y-86746491D01*
X135591659Y-86914614D01*
X135588565Y-86917328D01*
X135588559Y-86917332D01*
X135381767Y-87098685D01*
X135364142Y-87114142D01*
X135361433Y-87117231D01*
X135167332Y-87338559D01*
X135167328Y-87338565D01*
X135164614Y-87341659D01*
X134996491Y-87593274D01*
X134994667Y-87596972D01*
X134994664Y-87596978D01*
X134971219Y-87644520D01*
X134862648Y-87864680D01*
X134861323Y-87868585D01*
X134861322Y-87868586D01*
X134838868Y-87934735D01*
X134765376Y-88151234D01*
X134764573Y-88155273D01*
X134764571Y-88155279D01*
X134718759Y-88385592D01*
X134706339Y-88448034D01*
X134706070Y-88452145D01*
X134706069Y-88452149D01*
X134700339Y-88539580D01*
X134686547Y-88750000D01*
X133750000Y-88750000D01*
X133750000Y-85834500D01*
X133770002Y-85766379D01*
X133823658Y-85719886D01*
X133876000Y-85708500D01*
X167874000Y-85708500D01*
X167942121Y-85728502D01*
G37*
%TD.AperFunction*%
%TD*%
%TA.AperFunction,Conductor*%
%TO.N,Net-(T3-Pad1)*%
G36*
X170651975Y-90770002D02*
G01*
X170698468Y-90823658D01*
X170708572Y-90893932D01*
X170679078Y-90958512D01*
X170639583Y-90989006D01*
X170627222Y-90995102D01*
X170620091Y-90999219D01*
X170375395Y-91162719D01*
X170368864Y-91167730D01*
X170349493Y-91184719D01*
X170341097Y-91197956D01*
X170346931Y-91207721D01*
X171767188Y-92627978D01*
X171781132Y-92635592D01*
X171782965Y-92635461D01*
X171789580Y-92631210D01*
X173211315Y-91209475D01*
X173218829Y-91195714D01*
X173212372Y-91186354D01*
X173191136Y-91167730D01*
X173184605Y-91162719D01*
X172939909Y-90999219D01*
X172932778Y-90995102D01*
X172920417Y-90989006D01*
X172868168Y-90940937D01*
X172850202Y-90872252D01*
X172872221Y-90804756D01*
X172927237Y-90759880D01*
X172976146Y-90750000D01*
X174374000Y-90750000D01*
X174442121Y-90770002D01*
X174488614Y-90823658D01*
X174500000Y-90876000D01*
X174500000Y-99195810D01*
X174479998Y-99263931D01*
X174426342Y-99310424D01*
X174356068Y-99320528D01*
X174291488Y-99291034D01*
X174284905Y-99284905D01*
X173919778Y-98919778D01*
X173890301Y-98872377D01*
X173890256Y-98872396D01*
X173890143Y-98872122D01*
X173889561Y-98871187D01*
X173888678Y-98868587D01*
X173887352Y-98864680D01*
X173753509Y-98593274D01*
X173585386Y-98341659D01*
X173582672Y-98338565D01*
X173582668Y-98338559D01*
X173388567Y-98117231D01*
X173385858Y-98114142D01*
X173382769Y-98111433D01*
X173161441Y-97917332D01*
X173161435Y-97917328D01*
X173158341Y-97914614D01*
X173154911Y-97912322D01*
X173154910Y-97912321D01*
X172910160Y-97748785D01*
X172906727Y-97746491D01*
X172903028Y-97744667D01*
X172903023Y-97744664D01*
X172763692Y-97675954D01*
X172635320Y-97612648D01*
X172629872Y-97610799D01*
X172628813Y-97610439D01*
X172627878Y-97609857D01*
X172627604Y-97609744D01*
X172627623Y-97609699D01*
X172580222Y-97580222D01*
X172250000Y-97250000D01*
X171250000Y-97250000D01*
X170919778Y-97580222D01*
X170872377Y-97609699D01*
X170872396Y-97609744D01*
X170872122Y-97609857D01*
X170871187Y-97610439D01*
X170870128Y-97610799D01*
X170864680Y-97612648D01*
X170736442Y-97675888D01*
X170596978Y-97744664D01*
X170596973Y-97744667D01*
X170593274Y-97746491D01*
X170341659Y-97914614D01*
X170338565Y-97917328D01*
X170338559Y-97917332D01*
X170117231Y-98111433D01*
X170114142Y-98114142D01*
X170111433Y-98117231D01*
X169917332Y-98338559D01*
X169917328Y-98338565D01*
X169914614Y-98341659D01*
X169746491Y-98593274D01*
X169612648Y-98864680D01*
X169611322Y-98868587D01*
X169610439Y-98871187D01*
X169609857Y-98872122D01*
X169609744Y-98872396D01*
X169609699Y-98872377D01*
X169580222Y-98919778D01*
X169215095Y-99284905D01*
X169152783Y-99318931D01*
X169081968Y-99313866D01*
X169025132Y-99271319D01*
X169000321Y-99204799D01*
X169000000Y-99195810D01*
X169000000Y-94804286D01*
X170341171Y-94804286D01*
X170347628Y-94813646D01*
X170368864Y-94832270D01*
X170375395Y-94837281D01*
X170620091Y-95000781D01*
X170627228Y-95004902D01*
X170891174Y-95135065D01*
X170898778Y-95138215D01*
X171177457Y-95232814D01*
X171185409Y-95234945D01*
X171474056Y-95292360D01*
X171482214Y-95293434D01*
X171775881Y-95312682D01*
X171784119Y-95312682D01*
X172077786Y-95293434D01*
X172085944Y-95292360D01*
X172374591Y-95234945D01*
X172382543Y-95232814D01*
X172661222Y-95138215D01*
X172668826Y-95135065D01*
X172932772Y-95004902D01*
X172939909Y-95000781D01*
X173184605Y-94837281D01*
X173191136Y-94832270D01*
X173210507Y-94815281D01*
X173218903Y-94802044D01*
X173213069Y-94792279D01*
X171792812Y-93372022D01*
X171778868Y-93364408D01*
X171777035Y-93364539D01*
X171770420Y-93368790D01*
X170348685Y-94790525D01*
X170341171Y-94804286D01*
X169000000Y-94804286D01*
X169000000Y-93004119D01*
X169467318Y-93004119D01*
X169486566Y-93297786D01*
X169487640Y-93305944D01*
X169545055Y-93594591D01*
X169547186Y-93602543D01*
X169641785Y-93881222D01*
X169644935Y-93888826D01*
X169775098Y-94152772D01*
X169779219Y-94159909D01*
X169942719Y-94404605D01*
X169947730Y-94411136D01*
X169964719Y-94430507D01*
X169977956Y-94438903D01*
X169987721Y-94433069D01*
X171407978Y-93012812D01*
X171414356Y-93001132D01*
X172144408Y-93001132D01*
X172144539Y-93002965D01*
X172148790Y-93009580D01*
X173570525Y-94431315D01*
X173584286Y-94438829D01*
X173593646Y-94432372D01*
X173612270Y-94411136D01*
X173617281Y-94404605D01*
X173780781Y-94159909D01*
X173784902Y-94152772D01*
X173915065Y-93888826D01*
X173918215Y-93881222D01*
X174012814Y-93602543D01*
X174014945Y-93594591D01*
X174072360Y-93305944D01*
X174073434Y-93297786D01*
X174092682Y-93004119D01*
X174092682Y-92995881D01*
X174073434Y-92702214D01*
X174072360Y-92694056D01*
X174014945Y-92405409D01*
X174012814Y-92397457D01*
X173918215Y-92118778D01*
X173915065Y-92111174D01*
X173784902Y-91847228D01*
X173780781Y-91840091D01*
X173617281Y-91595395D01*
X173612270Y-91588864D01*
X173595281Y-91569493D01*
X173582044Y-91561097D01*
X173572279Y-91566931D01*
X172152022Y-92987188D01*
X172144408Y-93001132D01*
X171414356Y-93001132D01*
X171415592Y-92998868D01*
X171415461Y-92997035D01*
X171411210Y-92990420D01*
X169989475Y-91568685D01*
X169975714Y-91561171D01*
X169966354Y-91567628D01*
X169947730Y-91588864D01*
X169942719Y-91595395D01*
X169779219Y-91840091D01*
X169775098Y-91847228D01*
X169644935Y-92111174D01*
X169641785Y-92118778D01*
X169547186Y-92397457D01*
X169545055Y-92405409D01*
X169487640Y-92694056D01*
X169486566Y-92702214D01*
X169467318Y-92995881D01*
X169467318Y-93004119D01*
X169000000Y-93004119D01*
X169000000Y-90876000D01*
X169020002Y-90807879D01*
X169073658Y-90761386D01*
X169126000Y-90750000D01*
X170583854Y-90750000D01*
X170651975Y-90770002D01*
G37*
%TD.AperFunction*%
%TD*%
M02*
